<svg width="40" height="40" viewBox="0 0 40 40" fill="none" xmlns="http://www.w3.org/2000/svg">
<path d="M39.4141 4.88281H0.585938C0.262344 4.88281 0 5.14508 0 5.46875V34.5312C0 34.8549 0.262344 35.1172 0.585938 35.1172H39.4141C39.7377 35.1172 40 34.8549 40 34.5312V5.46875C40 5.14508 39.7377 4.88281 39.4141 4.88281ZM27.9252 21.2429C27.6964 21.0141 27.3254 21.0141 27.0966 21.2429C26.8678 21.4718 26.8678 21.8427 27.0966 22.0716L38.3133 33.2884C38.5017 33.4768 38.6402 33.7012 38.7263 33.9453H1.27367C1.35984 33.7012 1.49828 33.4768 1.68672 33.2884L12.9034 22.0716C13.1323 21.8427 13.1323 21.4718 12.9034 21.243C12.6746 21.0142 12.3036 21.0142 12.0748 21.243L1.17188 32.1459V7.85414L16.2712 22.9534C17.2672 23.9495 18.5915 24.498 20 24.498C21.4085 24.498 22.7328 23.9495 23.7288 22.9534L38.8281 7.85414V32.1459L27.9252 21.2429ZM1.27367 6.05469H38.7264C38.6402 6.29883 38.5018 6.5232 38.3134 6.71164L22.9002 22.1247C22.1255 22.8994 21.0955 23.3261 20 23.3261C18.9045 23.3261 17.8745 22.8994 17.0998 22.1247L1.68672 6.71164C1.49828 6.5232 1.35984 6.29883 1.27367 6.05469V6.05469Z" fill="black"/>
</svg>
