<svg width="40" height="40" viewBox="0 0 40 40" fill="none" xmlns="http://www.w3.org/2000/svg">
<path d="M36.087 6.52173H3.91305C1.75523 6.52173 0 8.27923 0 10.4348V29.5652C0 31.7232 1.75766 33.4783 3.91305 33.4783H36.087C38.2415 33.4783 40 31.7242 40 29.5652V10.4348C40 8.28001 38.2455 6.52173 36.087 6.52173ZM35.9815 9.13048C35.3179 9.79407 21.3822 23.7298 20.9223 24.1897C20.4124 24.6995 19.5876 24.6995 19.0777 24.1897C18.6174 23.7293 4.6818 9.79376 4.01852 9.13048H35.9815ZM2.60867 29.4598V11.4099L11.6336 20.4348L2.60867 29.4598ZM4.88805 30.8695L13.4782 22.2794L17.233 26.0342C18.7584 27.5598 21.2411 27.5599 22.7669 26.0342L26.5216 22.2794L35.1119 30.8695H4.88805ZM37.3913 29.4598L28.3663 20.4348L37.3913 11.4099V29.4598H37.3913Z" fill="#FFEE32"/>
</svg>
