<svg width="60" height="60" viewBox="0 0 60 60" fill="none" xmlns="http://www.w3.org/2000/svg">
<path d="M47.836 10.4771V46.9941C47.836 47.067 47.8348 47.1398 47.831 47.2127C47.7168 49.7135 45.6523 51.7076 43.121 51.7076H16.6159C14.0118 51.7076 11.9011 49.5968 11.9011 46.994V4.71481C11.9011 2.47652 13.4602 0.602695 15.5515 0.120234C15.8942 0.0413672 16.2502 0 16.6159 0H37.6698C38.3856 0 39.0843 0.162891 39.7173 0.469102C40.991 1.08211 41.3498 1.85684 43.6387 4.19719C46.272 7.05645 46.9007 7.34953 47.4373 8.58762C47.6986 9.17813 47.836 9.81973 47.836 10.4771Z" fill="#FFC477"/>
<path d="M47.8359 10.4771V46.9941C47.8359 47.067 47.8348 47.1398 47.831 47.2127C47.4884 47.2917 47.1324 47.3331 46.7665 47.3331H20.2614C17.6572 47.3331 15.5466 45.2223 15.5466 42.6195V0.340195C15.5466 0.266016 15.5477 0.193125 15.5514 0.120234C15.8941 0.0413672 16.2502 0 16.6159 0H37.6698C38.3856 0 39.0843 0.162891 39.7173 0.469102C40.2374 0.719414 40.7126 1.06699 41.1148 1.49719L43.6386 4.1973L46.5282 7.22063C46.9134 7.62281 47.2197 8.08582 47.4372 8.58773C47.6986 9.17812 47.8359 9.81973 47.8359 10.4771Z" fill="#FFDAAA"/>
<path d="M59.9317 26.8296V53.3371C59.9317 54.8111 59.4528 56.1746 58.6412 57.2779C57.4296 58.9282 55.4744 60 53.269 60H35.9552C32.2757 60 29.2925 57.0167 29.2925 53.3373V26.8296C29.2925 24.0796 30.9598 21.7185 33.3379 20.7015C34.1411 20.3575 35.0257 20.1667 35.9554 20.1667H53.269C56.9497 20.1669 59.9317 23.1501 59.9317 26.8296Z" fill="#4CBA68"/>
<path d="M59.9317 26.8296V53.3371C59.9317 54.8111 59.4528 56.1746 58.6412 57.2779C57.838 57.6219 56.9533 57.8126 56.0237 57.8126H38.7101C35.0305 57.8126 32.0474 54.8294 32.0474 51.15V24.6423C32.0474 23.1683 32.5262 21.8048 33.3378 20.7015C34.141 20.3575 35.0257 20.1667 35.9553 20.1667H53.269C56.9497 20.1669 59.9317 23.1501 59.9317 26.8296Z" fill="#7CCC92"/>
<path d="M47.1652 44.2576V47.3708C47.1652 47.9212 46.7192 48.3672 46.1699 48.3672H43.0554C42.505 48.3672 42.059 47.9212 42.059 47.3708V44.2576C42.059 43.7071 42.505 43.2611 43.0554 43.2611H46.1699C46.7193 43.2611 47.1652 43.7071 47.1652 44.2576Z" fill="#2C733F"/>
<path d="M55.3529 26.205V29.5407C55.3529 30.7267 54.3917 31.6891 53.2045 31.6891H36.0197C34.8336 31.6891 33.8713 30.7266 33.8713 29.5407V26.205C33.8713 25.019 34.8337 24.0566 36.0197 24.0566H53.2045C54.3917 24.0566 55.3529 25.0191 55.3529 26.205Z" fill="#1E81CE"/>
<path d="M55.353 26.205V29.5407C55.353 30.7267 54.3918 31.6891 53.2046 31.6891H39.6652C38.4791 31.6891 37.5168 30.7266 37.5168 29.5407V26.205C37.5168 25.019 38.4792 24.0566 39.6652 24.0566H53.2046C54.3918 24.0566 55.353 25.0191 55.353 26.205Z" fill="#3D9AE2"/>
<path d="M38.9785 44.2576V47.3708C38.9785 47.9212 38.5325 48.3672 37.9821 48.3672H34.8676C34.3183 48.3672 33.8712 47.9212 33.8712 47.3708V44.2576C33.8712 43.7071 34.3183 43.2611 34.8676 43.2611H37.9821C38.5326 43.2611 38.9785 43.7071 38.9785 44.2576Z" fill="#2C733F"/>
<path d="M47.1652 36.116V39.2292C47.1652 39.7796 46.7192 40.2256 46.1699 40.2256H43.0554C42.505 40.2256 42.059 39.7796 42.059 39.2292V36.116C42.059 35.5655 42.505 35.1195 43.0554 35.1195H46.1699C46.7193 35.1195 47.1652 35.5655 47.1652 36.116Z" fill="#2C733F"/>
<path d="M55.4514 36.116V39.2292C55.4514 39.7796 55.0054 40.2256 54.4549 40.2256H51.3417C50.7913 40.2256 50.3453 39.7796 50.3453 39.2292V36.116C50.3453 35.5655 50.7913 35.1195 51.3417 35.1195H54.4549C55.0055 35.1195 55.4514 35.5655 55.4514 36.116Z" fill="#EE8700"/>
<path d="M38.9785 36.116V39.2292C38.9785 39.7796 38.5325 40.2256 37.9821 40.2256H34.8676C34.3183 40.2256 33.8712 39.7796 33.8712 39.2292V36.116C33.8712 35.5655 34.3183 35.1195 34.8676 35.1195H37.9821C38.5326 35.1195 38.9785 35.5655 38.9785 36.116Z" fill="#2C733F"/>
<path d="M47.1652 51.9994V55.1139C47.1652 55.6643 46.7192 56.1104 46.1699 56.1104H43.0554C42.505 56.1104 42.059 55.6643 42.059 55.1139V51.9994C42.059 51.4502 42.505 51.0042 43.0554 51.0042H46.1699C46.7193 51.0042 47.1652 51.4502 47.1652 51.9994Z" fill="#2C733F"/>
<path d="M38.9785 51.9994V55.1139C38.9785 55.6643 38.5325 56.1104 37.9821 56.1104H34.8676C34.3183 56.1104 33.8712 55.6643 33.8712 55.1139V51.9994C33.8712 51.4502 34.3183 51.0042 34.8676 51.0042H37.9821C38.5326 51.0042 38.9785 51.4502 38.9785 51.9994Z" fill="#2C733F"/>
<path d="M55.4514 44.7412V54.4102C55.4514 55.3496 54.6907 56.1102 53.7526 56.1102H52.0441C51.1061 56.1102 50.3454 55.3496 50.3454 54.4102V44.7412C50.3454 43.9233 51.0089 43.2611 51.8255 43.2611H53.9714C54.7891 43.2611 55.4514 43.9234 55.4514 44.7412Z" fill="#EE8700"/>
<path d="M47.1652 44.2576V45.1835C47.1652 45.7339 46.7192 46.1799 46.1699 46.1799H43.0554C42.505 46.1799 42.059 45.7339 42.059 45.1835V44.2576C42.059 43.7071 42.505 43.2611 43.0554 43.2611H46.1699C46.7193 43.2611 47.1652 43.7071 47.1652 44.2576Z" fill="#317F46"/>
<path d="M38.9785 44.2576V45.1835C38.9785 45.7339 38.5325 46.1799 37.9821 46.1799H34.8676C34.3183 46.1799 33.8712 45.7339 33.8712 45.1835V44.2576C33.8712 43.7071 34.3183 43.2611 34.8676 43.2611H37.9821C38.5326 43.2611 38.9785 43.7071 38.9785 44.2576Z" fill="#317F46"/>
<path d="M47.1652 36.116V37.0419C47.1652 37.5923 46.7192 38.0383 46.1699 38.0383H43.0554C42.505 38.0383 42.059 37.5923 42.059 37.0419V36.116C42.059 35.5655 42.505 35.1195 43.0554 35.1195H46.1699C46.7193 35.1195 47.1652 35.5655 47.1652 36.116Z" fill="#317F46"/>
<path d="M55.4514 36.116V37.0419C55.4514 37.5923 55.0054 38.0383 54.4549 38.0383H51.3417C50.7913 38.0383 50.3453 37.5923 50.3453 37.0419V36.116C50.3453 35.5655 50.7913 35.1195 51.3417 35.1195H54.4549C55.0055 35.1195 55.4514 35.5655 55.4514 36.116Z" fill="#FF9811"/>
<path d="M38.9785 36.116V37.0419C38.9785 37.5923 38.5325 38.0383 37.9821 38.0383H34.8676C34.3183 38.0383 33.8712 37.5923 33.8712 37.0419V36.116C33.8712 35.5655 34.3183 35.1195 34.8676 35.1195H37.9821C38.5326 35.1195 38.9785 35.5655 38.9785 36.116Z" fill="#317F46"/>
<path d="M47.1652 51.9994V52.9266C47.1652 53.477 46.7192 53.9231 46.1699 53.9231H43.0554C42.505 53.9231 42.059 53.477 42.059 52.9266V51.9994C42.059 51.4502 42.505 51.0042 43.0554 51.0042H46.1699C46.7193 51.0042 47.1652 51.4502 47.1652 51.9994Z" fill="#317F46"/>
<path d="M38.9785 51.9994V52.9266C38.9785 53.477 38.5325 53.9231 37.9821 53.9231H34.8676C34.3183 53.9231 33.8712 53.477 33.8712 52.9266V51.9994C33.8712 51.4502 34.3183 51.0042 34.8676 51.0042H37.9821C38.5326 51.0042 38.9785 51.4502 38.9785 51.9994Z" fill="#317F46"/>
<path d="M55.4514 44.7412V52.2229C55.4514 53.1623 54.6907 53.9229 53.7526 53.9229H52.0441C51.1061 53.9229 50.3454 53.1623 50.3454 52.2229V44.7412C50.3454 43.9233 51.0089 43.2611 51.8255 43.2611H53.9714C54.7891 43.2611 55.4514 43.9234 55.4514 44.7412Z" fill="#FF9811"/>
<path d="M47.4376 8.58752H41.5296C40.5286 8.58752 39.717 7.77599 39.717 6.77498V0.469116C40.2374 0.719312 40.7125 1.06677 41.1145 1.4965L43.6393 4.19685L46.5286 7.22064C46.9133 7.62259 47.2194 8.08572 47.4376 8.58752Z" fill="#FFB655"/>
<path d="M22.5523 25.501C21.441 25.0927 20.6383 24.7978 20.6383 23.7683C20.6383 22.8301 21.2613 22.3543 22.4903 22.3543C23.3161 22.3543 23.7818 22.594 24.0907 22.7527C24.274 22.847 24.4323 22.9284 24.6056 22.9284C25.1058 22.9284 25.3825 22.3977 25.3825 22.0306C25.3825 21.2714 24.144 20.8949 23.0369 20.7956V20.111C23.0369 19.6347 22.6494 19.2473 22.1732 19.2473C21.6969 19.2473 21.3095 19.6347 21.3095 20.111V20.9045C19.7957 21.2639 18.9639 22.3095 18.9639 23.8588C18.9639 25.98 20.5255 26.5667 21.7805 27.0385C23.0093 27.5002 23.98 27.8649 23.98 29.2679C23.98 30.4267 23.3365 31.0142 22.0675 31.0142C20.9181 31.0142 20.4601 30.5206 20.1259 30.1603C19.9267 29.9455 19.7548 29.7601 19.4841 29.7601C19.0453 29.7601 18.6919 30.2512 18.6919 30.6579C18.6919 31.376 19.7615 32.3199 21.3096 32.5651V33.2266C21.3096 33.7029 21.6971 34.0903 22.1733 34.0903C22.6496 34.0903 23.037 33.7029 23.037 33.2266V32.5474C24.7022 32.234 25.6547 31.0112 25.6547 29.1772C25.6544 26.6408 23.9343 26.0089 22.5523 25.501Z" fill="#4E901E"/>
<path d="M38.6203 13.3054H40.9096C41.4129 13.3054 41.8209 12.8975 41.8209 12.394C41.8209 11.8906 41.4129 11.4827 40.9096 11.4827H38.6203C38.117 11.4827 37.7089 11.8906 37.7089 12.394C37.7089 12.8975 38.117 13.3054 38.6203 13.3054Z" fill="#4E901E"/>
<path d="M18.8132 13.3054H34.9748C35.4782 13.3054 35.8862 12.8975 35.8862 12.394C35.8862 11.8906 35.4782 11.4827 34.9748 11.4827H18.8132C18.3098 11.4827 17.9018 11.8906 17.9018 12.394C17.9018 12.8975 18.3098 13.3054 18.8132 13.3054Z" fill="#4E901E"/>
<path d="M21.71 17.8291C22.2134 17.8291 22.6214 17.4212 22.6214 16.9177C22.6214 16.4143 22.2134 16.0063 21.71 16.0063H18.8132C18.3098 16.0063 17.9018 16.4143 17.9018 16.9177C17.9018 17.4212 18.3098 17.8291 18.8132 17.8291H21.71Z" fill="#4E901E"/>
<path d="M40.9096 16.0063H25.3555C24.8522 16.0063 24.4442 16.4143 24.4442 16.9177C24.4442 17.4212 24.8522 17.8291 25.3555 17.8291H40.9096C41.4129 17.8291 41.821 17.4212 41.821 16.9177C41.821 16.4143 41.4129 16.0063 40.9096 16.0063Z" fill="#4E901E"/>
<path d="M26.1828 57.1346C26.1828 57.7701 25.9228 58.3461 25.5048 58.7654C25.0856 59.1834 24.5095 59.4435 23.874 59.4435H9.72948C8.45964 59.4435 7.42065 58.4045 7.42065 57.1346C7.42065 56.4991 7.68069 55.9232 8.0987 55.5039C8.51788 55.0858 9.09397 54.8258 9.72948 54.8258H23.874C25.144 54.8258 26.1828 55.8648 26.1828 57.1346Z" fill="#AA6100"/>
<path d="M26.1828 52.517C26.1828 53.1525 25.9228 53.7284 25.5048 54.1477C25.0856 54.5657 24.5095 54.8258 23.874 54.8258H9.72948C8.45964 54.8258 7.42065 53.7868 7.42065 52.517C7.42065 51.8814 7.68069 51.3055 8.0987 50.8862C8.51788 50.4682 9.09397 50.2081 9.72948 50.2081H23.874C25.144 50.2081 26.1828 51.2471 26.1828 52.517Z" fill="#CC7400"/>
<path d="M26.1828 47.8993C26.1828 48.5348 25.9228 49.1108 25.5048 49.5301C25.0856 49.9481 24.5095 50.2081 23.874 50.2081H9.72948C8.45964 50.2081 7.42065 49.1691 7.42065 47.8993C7.42065 47.2638 7.68069 46.6878 8.0987 46.2685C8.51788 45.8505 9.09397 45.5905 9.72948 45.5905H23.874C25.144 45.5906 26.1828 46.6294 26.1828 47.8993Z" fill="#EE8700"/>
<path d="M26.1828 43.2819C26.1828 43.9174 25.9228 44.4933 25.5048 44.9126C25.0856 45.3306 24.5095 45.5907 23.874 45.5907H9.72948C8.45964 45.5907 7.42065 44.5517 7.42065 43.2819C7.42065 42.8299 7.55308 42.4069 7.7803 42.0496C7.87147 41.905 7.97835 41.7713 8.0987 41.6511C8.51788 41.2331 9.09397 40.973 9.72948 40.973H23.874C25.144 40.973 26.1828 42.012 26.1828 43.2819Z" fill="#FF9811"/>
<path d="M23.8737 40.9731H9.72973C8.45988 40.9731 7.4209 39.9341 7.4209 38.6643C7.4209 37.3945 8.45988 36.3555 9.72973 36.3555H23.8738C25.1436 36.3555 26.1826 37.3945 26.1826 38.6643C26.1825 39.9341 25.1436 40.9731 23.8737 40.9731Z" fill="#FFA733"/>
<path d="M10.2312 44.6757V59.7062H7.93114C5.90016 59.7936 4.02176 59.0651 2.61352 57.8133C-2.49726 53.2778 0.613596 44.965 7.28754 44.6757H10.2312Z" fill="#CC7400"/>
<path d="M18.0614 52.4629C17.926 56.3499 14.8171 59.5367 10.8667 59.7058C6.71659 59.8833 3.20835 56.6627 3.03092 52.5126C3.03022 52.4958 3.0294 52.4797 3.0294 52.4629C2.8794 48.3336 6.09093 44.8529 10.2241 44.6762C14.3742 44.4988 17.8825 47.7193 18.0599 51.8702C18.0683 52.0697 18.069 52.267 18.0614 52.4629Z" fill="#FFC477"/>
<path d="M11.79 57.6802C11.6982 57.7008 11.6071 57.7192 11.5154 57.7352C8.57859 58.2524 5.72297 56.3751 5.05582 53.4353C4.36887 50.4035 6.26906 47.3896 9.3007 46.7018C10.0549 46.5312 10.8084 46.5198 11.5253 46.6467C13.6887 47.0307 15.5178 48.6694 16.0342 50.9467C16.7218 53.9783 14.8216 56.9932 11.79 57.6802Z" fill="#CC7400"/>
<path d="M11.79 57.6802C11.6982 57.7008 11.6071 57.7192 11.5154 57.7352C9.35283 57.3512 7.52295 55.7119 7.0065 53.4353C6.31955 50.4035 8.21975 47.3896 11.2514 46.7018C11.3424 46.6812 11.4343 46.6628 11.5253 46.6467C13.6887 47.0308 15.5178 48.6694 16.0342 50.9467C16.7218 53.9783 14.8216 56.9932 11.79 57.6802Z" fill="#EE8700"/>
<path d="M18.0614 52.463C17.9261 56.35 14.8171 59.5368 10.8667 59.7059C6.71661 59.8833 3.20836 56.6628 3.03094 52.5127C3.03024 52.4958 3.02942 52.4798 3.02942 52.463H4.92188C4.93793 52.785 4.98223 53.1102 5.05583 53.4353C5.7436 56.4671 8.75836 58.368 11.79 57.6802C14.3122 57.1087 16.0509 54.927 16.168 52.463H18.0614Z" fill="#FFA733"/>
<path d="M11.2208 51.0481L11.0796 50.996C10.2792 50.7018 10.1978 50.6086 10.1978 50.3373C10.1978 50.1089 10.2819 50.0433 10.3608 49.9995C10.4836 49.9316 10.6764 49.8941 10.9035 49.8941C11.3005 49.8941 11.5004 49.9971 11.6785 50.0886C11.8148 50.1587 11.9694 50.238 12.1705 50.238C12.6903 50.238 13.0396 49.7512 13.0396 49.2965C13.0396 48.7424 12.544 48.3604 11.6347 48.204V48.1468C11.6347 47.639 11.2215 47.2258 10.7137 47.2258C10.206 47.2258 9.79277 47.639 9.79277 48.1468V48.3215C8.89558 48.647 8.38792 49.3871 8.38792 50.3914C8.38792 51.9415 9.51409 52.3646 10.3366 52.6738C11.1209 52.9685 11.3921 53.0975 11.3921 53.6311C11.3921 53.9646 11.3024 54.2731 10.6505 54.2731C10.1381 54.2731 9.95788 54.0788 9.78339 53.8906C9.64734 53.7438 9.44144 53.5222 9.10312 53.5222C8.6005 53.5222 8.22491 54.0192 8.22491 54.4636C8.22491 55.0932 8.87964 55.6908 9.79288 55.9332V56.0021C9.79288 56.5099 10.2061 56.9231 10.7139 56.9231C11.2216 56.9231 11.6348 56.5099 11.6348 56.0021V55.9091C12.6228 55.5914 13.2027 54.7407 13.2027 53.5768C13.2021 51.7869 11.9134 51.3063 11.2208 51.0481Z" fill="#AA6100"/>
<path d="M4.26894 48.0459C3.89933 48.6046 3.60238 49.2153 3.39156 49.8637H0.456482C0.665544 49.2054 0.982068 48.5737 1.33258 48.0459H4.26894Z" fill="#AA6100"/>
<path d="M3.08251 53.1345H0.146148C0.0719684 52.5353 0.0657575 51.9359 0.137593 51.3167H3.07513C3.0047 51.9069 3.00623 52.5205 3.08251 53.1345Z" fill="#AA6100"/>
<path d="M4.37195 56.4876H1.43441C1.03667 55.9179 0.724016 55.2984 0.506165 54.6698H3.44253C3.66905 55.323 3.98417 55.9326 4.37195 56.4876Z" fill="#AA6100"/>
</svg>
