<svg width="60" height="60" viewBox="0 0 60 60" fill="none" xmlns="http://www.w3.org/2000/svg">
<path d="M29.64 31L35.05 3.01998C35.1725 2.09959 35.795 1.3229 36.6666 1.00292C37.5382 0.682943 38.5154 0.872393 39.2043 1.49492C39.8932 2.11745 40.1803 3.0705 39.95 3.96998L34.5 32.14L29.64 31Z" fill="#A56A43"/>
<path d="M32.97 55.47C29.93 58.04 25.82 59.03 21.58 59.07C20.2228 59.08 18.8665 58.9999 17.52 58.83C15.9974 58.6486 14.4877 58.3714 13 58C12.28 57.82 11.61 57.62 10.97 57.41H10.96C9.92803 57.0808 8.91913 56.6832 7.93999 56.22C6.48507 55.5379 5.14291 54.6375 3.96 53.55C3.37947 53.0044 2.85977 52.3975 2.41 51.74C1.84927 50.9261 1.43004 50.0234 1.17 49.07C1.10668 48.7966 1.16182 48.5093 1.32182 48.2788C1.48182 48.0483 1.73178 47.8962 2.01 47.86C19.23 45.25 24.33 37.65 25.62 34.96L37.37 36.98C37.6993 38.8761 37.8765 40.7956 37.9 42.72L32.97 55.47Z" fill="#F3D55B"/>
<path d="M37.37 36.98C35.7392 37.6792 33.9844 38.0431 32.21 38.05C30.5718 38.1361 28.9463 37.721 27.55 36.86C26.7707 36.3815 26.1106 35.7317 25.62 34.96C25.68 34.83 25.73 34.71 25.78 34.6C26.2952 33.2246 27.2894 32.0812 28.58 31.38C28.9172 31.2123 29.273 31.0848 29.64 31C30.7587 30.7704 31.9201 30.8748 32.98 31.3C33.5242 31.5059 34.0361 31.7888 34.5 32.14C36.0246 33.2812 37.0464 34.9699 37.35 36.85C37.36 36.89 37.36 36.94 37.37 36.98V36.98Z" fill="#BDC3C7"/>
<path d="M25.62 34.9599C25.6145 34.9599 25.61 34.9555 25.61 34.95Z" fill="#A56A43"/>
<path d="M16.88 48.52C16.6121 48.0375 16.0065 47.8594 15.52 48.12C11.55 50.29 5.87 51.3 2.41 51.74C2.85978 52.3976 3.37948 53.0044 3.96 53.55C7.59 53.01 12.71 51.93 16.48 49.88C16.7139 49.7532 16.8876 49.5384 16.9626 49.2832C17.0377 49.0279 17.008 48.7533 16.88 48.52V48.52Z" fill="#E4C05C"/>
<path d="M27.83 46.56C23.77 52.54 16.46 55.76 10.97 57.41C10.97 57.41 10.97 57.42 10.96 57.41C9.92804 57.0808 8.91914 56.6833 7.94 56.22C13.06 54.97 21.74 51.97 26.17 45.44C26.4793 44.9816 27.1016 44.8607 27.56 45.17C28.0184 45.4793 28.1393 46.1016 27.83 46.56V46.56Z" fill="#E4C05C"/>
<path d="M27.85 53.98C26.0863 56.0432 23.9616 57.768 21.58 59.07C20.2228 59.0801 18.8665 58.9999 17.52 58.83C20.8975 57.5127 23.9137 55.4117 26.32 52.7C26.4874 52.4957 26.7298 52.3669 26.9928 52.3425C27.2559 52.3181 27.5178 52.4 27.72 52.57C27.9245 52.7396 28.0531 52.9835 28.0775 53.2481C28.1019 53.5126 28.02 53.7759 27.85 53.98V53.98Z" fill="#E4C05C"/>
<path d="M59 51.83C59.0027 53.8399 57.9073 55.6908 56.1441 56.6558C54.3809 57.6207 52.2315 57.5456 50.54 56.46C49.0599 58.2092 46.8577 59.1808 44.5679 59.0949C42.2781 59.0091 40.1549 57.8752 38.81 56.02C38.0413 56.497 37.1547 56.7498 36.25 56.75C33.5594 56.739 31.381 54.5606 31.37 51.87C31.37 49.7129 32.7843 47.811 34.85 47.19C34.8742 45.2219 36.0762 43.4602 37.9 42.72C39.4972 42.0687 41.3198 42.3123 42.69 43.36C44.3361 41.4045 46.9599 40.5698 49.4332 41.2149C51.9066 41.8599 53.7886 43.8697 54.27 46.38C56.9811 46.7703 58.9952 49.0909 59 51.83Z" fill="#95A5A5"/>
<path d="M50.345 48.135C49.8656 48.135 49.4536 47.7948 49.363 47.324C49.2442 46.7062 48.7808 46.2116 48.1719 46.053C47.5631 45.8943 46.9173 46.0998 46.512 46.581C46.1558 47.0035 45.5245 47.0573 45.102 46.701C44.6795 46.3448 44.6258 45.7135 44.982 45.291C45.8847 44.2208 47.322 43.7644 48.6768 44.1177C50.0316 44.4711 51.0629 45.5713 51.328 46.946C51.3781 47.2065 51.3227 47.4762 51.174 47.6958C51.0253 47.9154 50.7954 48.0669 50.535 48.117C50.4724 48.1289 50.4088 48.1349 50.345 48.135V48.135Z" fill="#ECF0F1"/>
<path d="M55.5 37C56.8807 37 58 35.8807 58 34.5C58 33.1193 56.8807 32 55.5 32C54.1193 32 53 33.1193 53 34.5C53 35.8807 54.1193 37 55.5 37Z" fill="#7F8C8D"/>
<path d="M49 30C50.1045 30 51 29.1046 51 28C51 26.8954 50.1045 26 49 26C47.8954 26 47 26.8954 47 28C47 29.1046 47.8954 30 49 30Z" fill="#7F8C8D"/>
<path d="M7 23C6.44772 23 6 22.5523 6 22V20C6 19.4477 6.44772 19 7 19C7.55229 19 8 19.4477 8 20V22C8 22.5523 7.55229 23 7 23Z" fill="#FF5364"/>
<path d="M7 29C6.44772 29 6 28.5523 6 28V26C6 25.4477 6.44772 25 7 25C7.55229 25 8 25.4477 8 26V28C8 28.5523 7.55229 29 7 29Z" fill="#FF5364"/>
<path d="M5 25H3C2.44772 25 2 24.5523 2 24C2 23.4477 2.44772 23 3 23H5C5.55228 23 6 23.4477 6 24C6 24.5523 5.55228 25 5 25Z" fill="#FF5364"/>
<path d="M11 25H9C8.44772 25 8 24.5523 8 24C8 23.4477 8.44772 23 9 23H11C11.5523 23 12 23.4477 12 24C12 24.5523 11.5523 25 11 25Z" fill="#FF5364"/>
<path d="M10 38.9999C9.5956 38.9998 9.23106 38.7562 9.07632 38.3826C8.92158 38.009 9.00709 37.5789 9.293 37.2929L10.793 35.7929C11.1854 35.4139 11.8091 35.4194 12.1948 35.8051C12.5806 36.1908 12.586 36.8145 12.207 37.2069L10.707 38.7069C10.5195 38.8945 10.2652 38.9999 10 38.9999V38.9999Z" fill="#955BA5"/>
<path d="M14.5 34.4999C14.0956 34.4998 13.7311 34.2562 13.5763 33.8826C13.4216 33.509 13.5071 33.0789 13.793 32.7929L15.293 31.2929C15.6854 30.9139 16.3091 30.9194 16.6948 31.3051C17.0805 31.6908 17.086 32.3145 16.707 32.7069L15.207 34.2069C15.0195 34.3945 14.7652 34.4999 14.5 34.4999V34.4999Z" fill="#955BA5"/>
<path d="M16 38.9999C15.7348 38.9999 15.4805 38.8945 15.293 38.7069L13.793 37.2069C13.414 36.8145 13.4195 36.1908 13.8052 35.8051C14.1909 35.4194 14.8146 35.4139 15.207 35.7929L16.707 37.2929C16.9929 37.5789 17.0784 38.009 16.9237 38.3826C16.7689 38.7562 16.4044 38.9998 16 38.9999V38.9999Z" fill="#955BA5"/>
<path d="M11.5 34.4999C11.2348 34.4999 10.9805 34.3945 10.793 34.2069L9.29301 32.7069C8.91404 32.3145 8.91946 31.6908 9.30519 31.3051C9.69093 30.9194 10.3146 30.9139 10.707 31.2929L12.207 32.7929C12.4929 33.0789 12.5784 33.509 12.4237 33.8826C12.2689 34.2562 11.9044 34.4998 11.5 34.4999V34.4999Z" fill="#955BA5"/>
<path d="M29 13.087C28.9413 13.0874 28.8827 13.0824 28.825 13.072L11.825 10.072C11.2805 9.97559 10.9171 9.45602 11.0135 8.91146C11.1099 8.36691 11.6295 8.00359 12.174 8.09996L29.174 11.1C29.691 11.1838 30.0557 11.6525 30.0101 12.1743C29.9644 12.6961 29.5237 13.0942 29 13.087V13.087Z" fill="#84B5CB"/>
<path d="M28 18.087C27.9413 18.0874 27.8827 18.0824 27.825 18.072L16.987 16.159C16.6351 16.0968 16.3431 15.8516 16.221 15.5158C16.0988 15.1799 16.1652 14.8045 16.395 14.5308C16.6248 14.2571 16.9831 14.1268 17.335 14.189L28.174 16.1C28.691 16.1839 29.0558 16.6525 29.0101 17.1743C28.9644 17.6961 28.5238 18.0942 28 18.087V18.087Z" fill="#84B5CB"/>
<path d="M27 23C26.9413 22.9999 26.8828 22.9949 26.825 22.985L13.725 20.672C13.181 20.5762 12.8177 20.0575 12.9135 19.5135C13.0093 18.9695 13.528 18.6062 14.072 18.702L27.178 21.015C27.69 21.1046 28.0479 21.5716 28.0015 22.0893C27.9551 22.607 27.5198 23.0029 27 23V23Z" fill="#84B5CB"/>
</svg>
