<svg width="63" height="63" viewBox="0 0 63 63" fill="none" xmlns="http://www.w3.org/2000/svg">
<path d="M11.2989 58.1404C11.2989 44.9665 20.3261 39.2362 31.4594 39.2362C42.5927 39.2362 51.6196 44.9665 51.6196 58.1404H11.2989Z" fill="#E6E6E6"/>
<path d="M25.9779 36.7999H36.9409V40.657C36.9409 41.7339 36.5131 42.7667 35.7516 43.5282C34.9901 44.2897 33.9573 44.7175 32.8803 44.7175H30.0385C28.9615 44.7175 27.9287 44.2897 27.1672 43.5282C26.4057 42.7667 25.9779 41.7339 25.9779 40.657V36.7999Z" fill="#EFB886"/>
<path d="M31.7148 11.8935V11.8839C31.6277 11.8839 31.5455 11.8874 31.4594 11.8888C31.3733 11.8903 31.2906 11.8839 31.2039 11.8839V11.8935C15.1163 12.2934 19.9971 26.9685 19.9971 26.9685H42.9217C42.9217 26.9685 47.8025 12.2934 31.7148 11.8935Z" fill="#414141"/>
<path d="M41.4449 24.7922C42.1736 24.7922 42.8725 25.0817 43.3879 25.597C43.9032 26.1123 44.1927 26.8112 44.1927 27.54C44.1927 28.2687 43.9032 28.9677 43.3879 29.483C42.8725 29.9983 42.1736 30.2878 41.4449 30.2878H21.4744C20.7456 30.2878 20.0467 29.9983 19.5314 29.483C19.0161 28.9677 18.7266 28.2687 18.7266 27.54C18.7266 26.8112 19.0161 26.1123 19.5314 25.597C20.0467 25.0817 20.7456 24.7922 21.4744 24.7922H41.4449Z" fill="#EFB886"/>
<path d="M26.6726 15.0117C23.2192 15.0117 20.9672 19.9193 20.9672 21.8851L21.9115 29.3378C21.9115 35.5148 28.4233 40.1999 31.4761 40.1999H31.4407C34.4923 40.1999 41.0054 35.516 41.0054 29.3378L41.9496 21.8851C41.9496 19.9193 39.6986 15.0117 36.2454 15.0117H26.6726Z" fill="#FDD7AD"/>
<path d="M27.3312 29.0347C27.9342 29.0347 28.4231 28.5458 28.4231 27.9427C28.4231 27.3397 27.9342 26.8508 27.3312 26.8508C26.7281 26.8508 26.2393 27.3397 26.2393 27.9427C26.2393 28.5458 26.7281 29.0347 27.3312 29.0347Z" fill="#EFB886"/>
<path d="M35.5876 29.0347C36.1907 29.0347 36.6795 28.5458 36.6795 27.9427C36.6795 27.3397 36.1907 26.8508 35.5876 26.8508C34.9846 26.8508 34.4957 27.3397 34.4957 27.9427C34.4957 28.5458 34.9846 29.0347 35.5876 29.0347Z" fill="#EFB886"/>
<path d="M31.4594 35.6204C30.1652 35.6204 28.9209 34.9576 28.0461 33.8017L29.341 32.8213C29.9147 33.5788 30.6667 33.9959 31.4594 33.9959C32.2521 33.9959 33.0041 33.5775 33.5778 32.8213L34.8727 33.8017C33.9979 34.9576 32.7536 35.6204 31.4594 35.6204V35.6204Z" fill="#EFB886"/>
<path d="M31.4594 6.65063C34.6481 6.65063 37.7063 7.91736 39.9611 10.1721C42.2158 12.4269 43.4826 15.485 43.4826 18.6738V18.9305H19.4365V18.6738C19.4365 15.4851 20.7032 12.427 22.9579 10.1722C25.2126 7.91745 28.2707 6.6507 31.4594 6.65063V6.65063Z" fill="#FFA329"/>
<path d="M41.0915 23.9942H21.8285C21.4815 23.9943 21.1378 23.9261 20.8172 23.7934C20.4965 23.6607 20.2051 23.4662 19.9597 23.2209C19.7142 22.9756 19.5194 22.6844 19.3865 22.3638C19.2536 22.0432 19.1851 21.6996 19.185 21.3526V18.9739H43.7338V21.3521C43.7337 22.0528 43.4552 22.7248 42.9597 23.2203C42.4642 23.7158 41.7922 23.9941 41.0915 23.9942V23.9942Z" fill="#FFA329"/>
<path d="M18.3537 17.4395H44.5654V20.1465H18.3537V17.4395Z" fill="#F97600"/>
<path d="M30.2405 5.62671H32.6785C33.0375 5.62671 33.3818 5.76931 33.6356 6.02314C33.8894 6.27698 34.032 6.62125 34.032 6.98022V18.522H28.887V6.98022C28.887 6.62125 29.0296 6.27698 29.2834 6.02314C29.5372 5.76931 29.8815 5.62671 30.2405 5.62671V5.62671Z" fill="#F97600"/>
<path d="M22.8702 58.1404H15.8319L17.8622 41.8027L22.0581 39.7725L22.8702 58.1404Z" fill="#F97600"/>
<path d="M40.0486 58.1404H47.0868L45.0566 41.8027L40.8607 39.7725L40.0486 58.1404Z" fill="#F97600"/>
<path d="M40.7157 47.9659H22.2033L19.0917 58.1404H43.8273L40.7157 47.9659Z" fill="#FFA329"/>
<path d="M31.4594 21.3705C34.0382 21.3705 36.1288 19.28 36.1288 16.7011C36.1288 14.1223 34.0382 12.0317 31.4594 12.0317C28.8806 12.0317 26.79 14.1223 26.79 16.7011C26.79 19.28 28.8806 21.3705 31.4594 21.3705Z" fill="#E6E6E6"/>
<path d="M29.2263 16.7012C29.2263 16.1089 29.4616 15.5408 29.8805 15.122C30.2993 14.7032 30.8673 14.4679 31.4597 14.4679" fill="white"/>
<path d="M30.0385 17.5133H28.4142V16.7012C28.4152 15.8938 28.7363 15.1197 29.3072 14.5487C29.8782 13.9778 30.6522 13.6567 31.4597 13.6558H32.2718V15.28H31.4597C31.0829 15.2804 30.7216 15.4302 30.4552 15.6967C30.1887 15.9631 30.0389 16.3244 30.0385 16.7012V17.5133Z" fill="white"/>
<path d="M30.3503 49.6688L33.0356 49.6526L31.5815 52.6352H33.974L30.1059 58.0518L30.9955 54.0513H28.9451L30.3503 49.6688Z" fill="#414141"/>
</svg>
