<svg width="80" height="80" viewBox="0 0 80 80" fill="none" xmlns="http://www.w3.org/2000/svg">
<path d="M32.5 65H47.5V70C47.5 71.3261 46.9732 72.5979 46.0355 73.5355C45.0979 74.4732 43.8261 75 42.5 75H37.5C36.1739 75 34.9021 74.4732 33.9645 73.5355C33.0268 72.5979 32.5 71.3261 32.5 70V65Z" fill="#FEC458"/>
<path d="M38.75 22.5C39.1768 22.504 39.5997 22.5819 40 22.73V15C34.6957 15 29.6086 17.1071 25.8579 20.8579C22.1071 24.6086 20 29.6957 20 35H27.73C27.5819 35.4003 27.504 35.8232 27.5 36.25C27.5 37.2446 27.8951 38.1984 28.5983 38.9017C29.3016 39.6049 30.2554 40 31.25 40C32.2446 40 33.1984 39.6049 33.9017 38.9017C34.6049 38.1984 35 37.2446 35 36.25C34.996 35.8232 34.9181 35.4003 34.77 35H40V29.77C39.5997 29.9181 39.1768 29.996 38.75 30C37.7554 30 36.8016 29.6049 36.0983 28.9017C35.3951 28.1984 35 27.2446 35 26.25C35 25.2554 35.3951 24.3016 36.0983 23.5983C36.8016 22.8951 37.7554 22.5 38.75 22.5V22.5Z" fill="#F26674"/>
<path d="M41.25 40C40.8232 40.004 40.4003 40.0819 40 40.23V35H34.77C34.9181 35.4003 34.996 35.8232 35 36.25C35 37.2446 34.6049 38.1984 33.9017 38.9017C33.1984 39.6049 32.2446 40 31.25 40C30.2554 40 29.3016 39.6049 28.5983 38.9017C27.8951 38.1984 27.5 37.2446 27.5 36.25C27.504 35.8232 27.5819 35.4003 27.73 35H20C20.0016 38.9826 21.1921 42.8739 23.4191 46.1757C25.6461 49.4774 28.8081 52.039 32.5 53.5325V57.5H40V47.27C40.4003 47.4181 40.8232 47.496 41.25 47.5C42.2446 47.5 43.1984 47.1049 43.9016 46.4016C44.6049 45.6984 45 44.7446 45 43.75C45 42.7554 44.6049 41.8016 43.9016 41.0984C43.1984 40.3951 42.2446 40 41.25 40V40Z" fill="#FBDB75"/>
<path d="M52.27 35C52.4181 34.5997 52.496 34.1768 52.5 33.75C52.5 32.7554 52.1049 31.8016 51.4016 31.0983C50.6984 30.3951 49.7446 30 48.75 30C47.7554 30 46.8016 30.3951 46.0984 31.0983C45.3951 31.8016 45 32.7554 45 33.75C45.004 34.1768 45.0819 34.5997 45.23 35H40V40.23C40.4003 40.0819 40.8232 40.004 41.25 40C42.2446 40 43.1984 40.3951 43.9016 41.0984C44.6049 41.8016 45 42.7554 45 43.75C45 44.7446 44.6049 45.6984 43.9016 46.4016C43.1984 47.1049 42.2446 47.5 41.25 47.5C40.8232 47.496 40.4003 47.4181 40 47.27V57.5H47.5V53.5325C51.1919 52.039 54.3539 49.4774 56.5809 46.1757C58.8079 42.8739 59.9984 38.9826 60 35H52.27Z" fill="#B3DE8A"/>
<path d="M55.23 25C55.0819 24.5997 55.004 24.1768 55 23.75C55 22.7554 55.3951 21.8016 56.0984 21.0983C56.8016 20.3951 57.7554 20 58.75 20C59.7446 20 60.6984 20.3951 61.4016 21.0983C62.1049 21.8016 62.5 22.7554 62.5 23.75C62.496 24.1768 62.4181 24.5997 62.27 25H70C70 19.6957 67.8929 14.6086 64.1421 10.8579C60.3914 7.10714 55.3043 5 50 5V12.73C49.5997 12.5819 49.1768 12.504 48.75 12.5C47.7554 12.5 46.8016 12.8951 46.0984 13.5983C45.3951 14.3016 45 15.2554 45 16.25C45 17.2446 45.3951 18.1984 46.0984 18.9017C46.8016 19.6049 47.7554 20 48.75 20C49.1768 19.996 49.5997 19.9181 50 19.77V25H55.23Z" fill="#82BCF3"/>
<path d="M40 10.625C39.8342 10.625 39.6753 10.5592 39.5581 10.4419C39.4408 10.3247 39.375 10.1658 39.375 10V5C39.375 4.83424 39.4408 4.67527 39.5581 4.55806C39.6753 4.44085 39.8342 4.375 40 4.375C40.1658 4.375 40.3247 4.44085 40.4419 4.55806C40.5592 4.67527 40.625 4.83424 40.625 5V10C40.625 10.1658 40.5592 10.3247 40.4419 10.4419C40.3247 10.5592 40.1658 10.625 40 10.625Z" fill="#425B72"/>
<path d="M27.5 13.975C27.3903 13.975 27.2825 13.9461 27.1875 13.8912C27.0925 13.8364 27.0136 13.7575 26.9587 13.6625L24.4587 9.33247C24.3772 9.189 24.3557 9.01908 24.3989 8.85981C24.4421 8.70053 24.5466 8.56482 24.6896 8.4823C24.8325 8.39978 25.0023 8.37714 25.1618 8.41932C25.3214 8.46151 25.4578 8.56509 25.5412 8.70747L28.0412 13.0375C28.0961 13.1325 28.125 13.2403 28.125 13.35C28.125 13.4597 28.0961 13.5675 28.0412 13.6625C27.9864 13.7575 27.9075 13.8364 27.8125 13.8912C27.7175 13.9461 27.6097 13.975 27.5 13.975V13.975Z" fill="#425B72"/>
<path d="M18.3488 23.125C18.2394 23.1255 18.1319 23.0966 18.0375 23.0413L13.7063 20.5413C13.5639 20.4578 13.4603 20.3214 13.4181 20.1618C13.3759 20.0023 13.3986 19.8325 13.4811 19.6896C13.5636 19.5466 13.6993 19.4422 13.8586 19.3989C14.0179 19.3557 14.1878 19.3772 14.3313 19.4588L18.6625 21.9588C18.7817 22.0276 18.8749 22.1339 18.9275 22.2611C18.9802 22.3884 18.9893 22.5294 18.9535 22.6624C18.9177 22.7953 18.8391 22.9128 18.7297 22.9964C18.6204 23.0801 18.4864 23.1253 18.3488 23.125Z" fill="#425B72"/>
<path d="M15 35.625H10C9.83424 35.625 9.67527 35.5592 9.55806 35.4419C9.44085 35.3247 9.375 35.1658 9.375 35C9.375 34.8342 9.44085 34.6753 9.55806 34.5581C9.67527 34.4408 9.83424 34.375 10 34.375H15C15.1658 34.375 15.3247 34.4408 15.4419 34.5581C15.5592 34.6753 15.625 34.8342 15.625 35C15.625 35.1658 15.5592 35.3247 15.4419 35.4419C15.3247 35.5592 15.1658 35.625 15 35.625Z" fill="#425B72"/>
<path d="M14.02 50.625C13.8823 50.6253 13.7484 50.5801 13.639 50.4964C13.5297 50.4127 13.451 50.2953 13.4152 50.1624C13.3795 50.0294 13.3886 49.8884 13.4412 49.7611C13.4938 49.6339 13.587 49.5276 13.7063 49.4587L18.0375 46.9587C18.1086 46.9171 18.1873 46.8899 18.2689 46.8787C18.3506 46.8675 18.4337 46.8726 18.5133 46.8937C18.593 46.9148 18.6678 46.9514 18.7332 47.0014C18.7987 47.0515 18.8536 47.114 18.8949 47.1854C18.9361 47.2568 18.9628 47.3356 18.9734 47.4174C18.984 47.4991 18.9784 47.5821 18.9568 47.6617C18.9352 47.7412 18.898 47.8157 18.8475 47.8809C18.797 47.946 18.7342 48.0005 18.6625 48.0412L14.3313 50.5412C14.2369 50.5966 14.1294 50.6255 14.02 50.625V50.625Z" fill="#425B72"/>
<path d="M65.98 50.625C65.8706 50.6255 65.7631 50.5966 65.6687 50.5412L61.3375 48.0412C61.2658 48.0005 61.203 47.946 61.1525 47.8809C61.102 47.8157 61.0648 47.7412 61.0432 47.6617C61.0216 47.5821 61.016 47.4991 61.0266 47.4174C61.0372 47.3356 61.0639 47.2568 61.1051 47.1854C61.1464 47.114 61.2013 47.0515 61.2668 47.0014C61.3322 46.9514 61.407 46.9148 61.4867 46.8937C61.5663 46.8726 61.6494 46.8675 61.7311 46.8787C61.8127 46.8899 61.8914 46.9171 61.9625 46.9587L66.2937 49.4587C66.413 49.5276 66.5061 49.6339 66.5588 49.7611C66.6114 49.8884 66.6205 50.0294 66.5848 50.1624C66.549 50.2953 66.4703 50.4127 66.361 50.4964C66.2516 50.5801 66.1177 50.6253 65.98 50.625V50.625Z" fill="#425B72"/>
<path d="M70 35.625H65C64.8342 35.625 64.6753 35.5592 64.5581 35.4419C64.4408 35.3247 64.375 35.1658 64.375 35C64.375 34.8342 64.4408 34.6753 64.5581 34.5581C64.6753 34.4408 64.8342 34.375 65 34.375H70C70.1658 34.375 70.3247 34.4408 70.4419 34.5581C70.5592 34.6753 70.625 34.8342 70.625 35C70.625 35.1658 70.5592 35.3247 70.4419 35.4419C70.3247 35.5592 70.1658 35.625 70 35.625Z" fill="#425B72"/>
<path d="M37.5 70.625C37.3342 70.625 37.1753 70.5592 37.0581 70.4419C36.9408 70.3247 36.875 70.1658 36.875 70V65C36.875 64.8342 36.9408 64.6753 37.0581 64.5581C37.1753 64.4408 37.3342 64.375 37.5 64.375C37.6658 64.375 37.8247 64.4408 37.9419 64.5581C38.0592 64.6753 38.125 64.8342 38.125 65V70C38.125 70.1658 38.0592 70.3247 37.9419 70.4419C37.8247 70.5592 37.6658 70.625 37.5 70.625Z" fill="#425B72"/>
<path d="M42.5 70.625C42.3342 70.625 42.1753 70.5592 42.0581 70.4419C41.9408 70.3247 41.875 70.1658 41.875 70V65C41.875 64.8342 41.9408 64.6753 42.0581 64.5581C42.1753 64.4408 42.3342 64.375 42.5 64.375C42.6658 64.375 42.8247 64.4408 42.9419 64.5581C43.0592 64.6753 43.125 64.8342 43.125 65V70C43.125 70.1658 43.0592 70.3247 42.9419 70.4419C42.8247 70.5592 42.6658 70.625 42.5 70.625Z" fill="#425B72"/>
<path d="M50 57.5H30C28.6193 57.5 27.5 58.6193 27.5 60V62.5C27.5 63.8807 28.6193 65 30 65H50C51.3807 65 52.5 63.8807 52.5 62.5V60C52.5 58.6193 51.3807 57.5 50 57.5Z" fill="#425B72"/>
</svg>
