<svg width="60" height="60" viewBox="0 0 60 60" fill="none" xmlns="http://www.w3.org/2000/svg">
<path d="M41.2282 43.4737L42.4431 43.1469L45.9934 56.3967C46.1686 57.0507 45.5516 57.64 44.9064 57.4348L39.911 55.8469L36.3791 59.72C35.9229 60.2202 35.0939 60.0186 34.9186 59.3645L31.579 46.9041L41.2282 43.4737Z" fill="#F07281"/>
<path d="M18.805 43.4929L28.4163 46.9189L25.0815 59.3644C24.9062 60.0185 24.0772 60.2203 23.621 59.72L20.0892 55.8471L15.0938 57.4348C14.4484 57.6399 13.8314 57.0507 14.0067 56.3966L17.5545 43.1591C17.5545 43.1592 18.805 43.4929 18.805 43.4929Z" fill="#F07281"/>
<path d="M47.2221 41.8622L41.4499 43.4141C41.3047 43.4531 41.1723 43.5298 41.066 43.6362L36.8431 47.8663C36.6268 48.0828 36.3115 48.1677 36.0157 48.0887L30.2408 46.5466C30.0955 46.5078 29.9426 46.508 29.7974 46.547L24.0252 48.0989C23.7296 48.1783 23.4141 48.0941 23.1975 47.8779L18.9674 43.6549C18.861 43.5486 18.7284 43.4723 18.5831 43.4335L12.8082 41.8915C12.5126 41.8125 12.2814 41.5817 12.2019 41.2862L10.65 35.5141C10.611 35.3689 10.5343 35.2365 10.4279 35.1302L6.19781 30.9073C5.98125 30.691 5.8964 30.3757 5.97539 30.0799L7.51746 24.305C7.55625 24.1597 7.55613 24.0068 7.51711 23.8616L5.96519 18.0894C5.88574 17.7938 5.97 17.4783 6.18621 17.2617L10.4092 13.0316C10.5155 12.9252 10.5918 12.7926 10.6305 12.6473L12.1726 6.87244C12.2516 6.57678 12.4823 6.34556 12.7779 6.26611L18.5501 4.7142C18.6953 4.67517 18.8277 4.59853 18.934 4.49213L23.157 0.262008C23.3732 0.0454458 23.6885 -0.039398 23.9843 0.0395864L29.7592 1.58166C29.9045 1.62045 30.0574 1.62033 30.2026 1.58131L35.9748 0.0293911C36.2704 -0.050062 36.5859 0.0341958 36.8025 0.250407L41.0326 4.47338C41.139 4.57967 41.2716 4.65595 41.4169 4.69474L47.1918 6.23681C47.4874 6.3158 47.7186 6.54654 47.7981 6.84209L49.35 12.6143C49.389 12.7595 49.4657 12.8919 49.5721 12.9982L53.8022 17.2212C54.0188 17.4374 54.1036 17.7527 54.0246 18.0485L52.4825 23.8234C52.4438 23.9687 52.4439 24.1216 52.4829 24.2668L54.0348 30.039C54.1143 30.3346 54.03 30.6501 53.8138 30.8667L49.5908 35.0968C49.4845 35.2032 49.4082 35.3358 49.3695 35.4811L47.8274 41.256C47.7484 41.5516 47.5178 41.7827 47.2221 41.8622V41.8622Z" fill="#FFC344"/>
<path d="M30 42.4222C40.1388 42.4222 48.358 34.203 48.358 24.0642C48.358 13.9253 40.1388 5.70618 30 5.70618C19.8612 5.70618 11.642 13.9253 11.642 24.0642C11.642 34.203 19.8612 42.4222 30 42.4222Z" fill="#FEE97D"/>
<path d="M34.2836 41.9193C32.9092 42.2485 31.4748 42.4223 30 42.4223C19.8614 42.4223 11.642 34.2028 11.642 24.0643C11.642 13.9258 19.8614 5.7063 30 5.7063C31.4748 5.7063 32.9092 5.88009 34.2836 6.20927C26.211 8.13806 20.2091 15.4005 20.2091 24.0643C20.2091 32.7281 26.2109 39.9906 34.2836 41.9193Z" fill="#FEE45A"/>
<path d="M37.3876 31.2243H38.3291C39.369 31.2243 40.212 32.0672 40.212 33.1072C40.212 34.1471 39.369 34.99 38.3291 34.99H28.2305C27.7219 34.99 27.2298 34.8177 26.8262 34.5082C25.7618 33.692 24.6354 33.5192 23.2663 33.4379V21.4649C26.486 17.7862 30.5663 17.4405 30.2807 11.9432C30.2312 10.992 30.9893 10.1932 31.9418 10.1932C32.6704 10.1932 33.3182 10.6661 33.5309 11.363C34.395 14.1955 34.6111 17.0066 33.4703 19.9272H40.3559C41.3958 19.9272 42.2387 20.7701 42.2387 21.81C42.2387 22.85 41.3958 23.6929 40.3559 23.6929H38.0135H39.7182C40.7582 23.6929 41.6011 24.5358 41.6011 25.5757C41.6011 26.6157 40.7582 27.4586 39.7182 27.4586H38.0135H39.0923C40.1323 27.4586 40.9752 28.3015 40.9752 29.3414C40.9752 30.3814 40.1323 31.2243 39.0923 31.2243H37.3876Z" fill="#FFF3DE"/>
<path d="M23.2663 20.1712V21.4648L23.8782 21.9629V32.7635L23.2663 33.4378V34.6311C23.2663 35.1043 22.8827 35.4878 22.4095 35.4878H15.6293C13.1326 32.3523 11.6419 28.3821 11.6419 24.0643C11.6419 22.4219 11.8573 20.8296 12.2624 19.3145H22.4094C22.8827 19.3145 23.2663 19.698 23.2663 20.1712V20.1712Z" fill="#8AC9FE"/>
<path d="M37.3876 31.2243H38.3291C39.369 31.2243 40.212 32.0672 40.212 33.1072C40.212 34.1471 39.369 34.99 38.3291 34.99H28.2305C27.7219 34.99 27.2298 34.8177 26.8262 34.5082C25.7618 33.692 24.6354 33.5192 23.2663 33.4379V21.4649C26.486 17.7862 30.5663 17.4405 30.2807 11.9432C30.2312 10.992 30.9893 10.1932 31.9418 10.1932C32.6704 10.1932 33.3182 10.6661 33.5309 11.363C34.395 14.1955 34.6111 17.0066 33.4703 19.9272H40.3559C41.3958 19.9272 42.2387 20.7701 42.2387 21.81C42.2387 22.85 41.3958 23.6929 40.3559 23.6929H38.0135H39.7182C40.7582 23.6929 41.6011 24.5358 41.6011 25.5757C41.6011 26.6157 40.7582 27.4586 39.7182 27.4586H38.0135H39.0923C40.1323 27.4586 40.9752 28.3015 40.9752 29.3414C40.9752 30.3814 40.1323 31.2243 39.0923 31.2243H37.3876Z" fill="#F1B0A2"/>
<path d="M34.2253 16.5853C32.9721 18.0461 31.0682 19.0019 29.3038 20.7317C28.8619 21.1649 28.6096 21.7558 28.6096 22.3745V31.4096C28.6096 32.4737 29.3291 33.4153 30.3641 33.6625C31.2067 33.8637 31.9686 34.2399 32.7148 34.9898H28.2302C27.7219 34.9898 27.2298 34.8176 26.8263 34.5084C25.7618 33.6925 24.6353 33.5194 23.2664 33.438V21.4652C26.4884 17.7837 30.5721 17.4402 30.2797 11.9314C30.2302 10.9848 30.9934 10.1932 31.9415 10.1932C32.3056 10.1932 32.6506 10.3116 32.9299 10.5169C33.2093 10.7222 33.4246 11.0138 33.5306 11.3627C34.0613 13.1015 34.3475 14.832 34.2253 16.5853Z" fill="#EB9C8D"/>
<path d="M42.4969 45.6668L37.8367 50.335C37.6206 50.5515 37.5363 50.8666 37.6154 51.162L39.1068 56.7282L36.379 59.7199C35.9228 60.2202 35.0937 60.0184 34.9185 59.3644L31.5789 46.9041L36.0154 48.0888C36.3115 48.167 36.6273 48.0827 36.8427 47.866L41.0663 43.6363C41.1728 43.5298 41.305 43.4527 41.4505 43.4136L42.4431 43.1467L43.0771 45.5112L42.4969 45.6668Z" fill="#EB5569"/>
<path d="M28.4163 46.9188L27.6845 49.6493L23.1511 50.8693C22.9452 50.9247 22.7255 50.866 22.5745 50.7153C22.2498 50.3909 21.6957 50.5395 21.5768 50.983L20.231 56.0036L20.0891 55.847L15.0938 57.4348C14.4484 57.6399 13.8314 57.0507 14.0067 56.3966L17.5545 43.1591L18.5837 43.4332C18.7281 43.4723 18.8616 43.5482 18.9668 43.6546L23.1977 47.8782C23.4144 48.0936 23.7301 48.1781 24.0251 48.0985L28.4163 46.9188Z" fill="#EB5569"/>
</svg>
