<svg width="60" height="61" viewBox="0 0 60 61" fill="none" xmlns="http://www.w3.org/2000/svg">
<path d="M28.4139 61C30.0945 61 31.4568 59.6376 31.4568 57.9571V48.6853H21.2483V57.9571C21.2483 59.6375 22.6106 61 24.2912 61H28.4139Z" fill="#407093"/>
<path d="M31.1147 48.6853V57.9571C31.1147 59.6376 29.7524 61 28.0718 61H35.7088C37.3893 61 38.7517 59.6376 38.7517 57.9571V48.6853H31.1147Z" fill="#365E7D"/>
<path d="M38.4138 35.5965C41.8111 31.8737 43.883 26.9208 43.883 21.4835C43.883 11.9804 37.5537 3.95743 28.881 1.39548L26.1879 1.35669C16.6293 3.14931 9.39657 11.6049 9.44122 21.6523C9.46489 26.968 11.5061 31.8069 14.8385 35.4434C18.5926 39.5399 20.9644 44.6766 21.6659 50.132H31.494C32.287 44.736 34.6938 39.6729 38.4138 35.5965V35.5965Z" fill="#FFE07D"/>
<path d="M42.922 21.559C42.922 26.8957 40.8885 31.7571 37.554 35.4113C33.7988 39.5265 31.4061 44.666 30.6988 50.1321H38.3358C39.0431 44.666 41.4357 39.5265 45.191 35.4113C48.5255 31.7572 50.559 26.8958 50.559 21.559C50.559 10.1539 41.2721 0.917933 29.8479 1.00055C28.5987 1.00957 27.3756 1.13192 26.1878 1.35668C35.7143 3.1493 42.922 11.5117 42.922 21.559V21.559Z" fill="#FFD064"/>
<path d="M34.8027 45.6878C34.8027 44.4606 33.8079 43.4657 32.5807 43.4657H20.2854C19.0581 43.4657 18.0633 44.4606 18.0633 45.6878C18.0633 46.915 19.0582 47.9099 20.2854 47.9099H32.5806C33.8079 47.9099 34.8027 46.915 34.8027 45.6878V45.6878Z" fill="#E4F6FF"/>
<path d="M34.8027 50.132C34.8027 48.9048 33.8078 47.9099 32.5806 47.9099H20.2855C19.0582 47.9099 18.0634 48.9048 18.0634 50.132C18.0634 51.3593 19.0583 52.3541 20.2855 52.3541H32.5808C33.8079 52.3541 34.8027 51.3593 34.8027 50.132Z" fill="#D8E2F1"/>
<path d="M32.5806 56.7985C33.8078 56.7985 34.8027 55.8035 34.8027 54.5764C34.8027 53.3492 33.8078 52.3542 32.5806 52.3542H32.5807H20.2854C19.0581 52.3542 18.0633 53.3492 18.0633 54.5764C18.0633 55.8037 19.0582 56.7985 20.2854 56.7985H32.5806Z" fill="#E4F6FF"/>
<path d="M39.7146 43.4656H32.0776C33.3049 43.4656 34.2997 44.4605 34.2997 45.6877C34.2997 46.915 33.3048 47.9098 32.0776 47.9098H39.7146C40.9419 47.9098 41.9367 46.9149 41.9367 45.6877C41.9367 44.4605 40.9418 43.4656 39.7146 43.4656Z" fill="#D8E2F1"/>
<path d="M39.7146 47.9099H32.0776C33.3049 47.9099 34.2997 48.9048 34.2997 50.132C34.2997 51.3593 33.3048 52.3541 32.0776 52.3541H39.7146C40.9419 52.3541 41.9367 51.3592 41.9367 50.132C41.9367 48.9048 40.9418 47.9099 39.7146 47.9099Z" fill="#B9CBEA"/>
<path d="M39.7146 52.3542H32.0776C33.3049 52.3542 34.2997 53.3492 34.2997 54.5764C34.2997 55.8035 33.3048 56.7985 32.0776 56.7985H39.7146C40.9419 56.7985 41.9367 55.8035 41.9367 54.5764C41.9367 53.3492 40.9418 52.3542 39.7146 52.3542Z" fill="#D8E2F1"/>
<path d="M44.8337 22.6498V20.1257C44.8337 19.3923 44.2392 18.7977 43.5057 18.7977H43.3557C42.7532 18.7977 42.2339 18.3899 42.0721 17.8095C41.8291 16.9382 41.4945 16.1052 41.0789 15.3216C40.8027 14.8007 40.8881 14.1624 41.305 13.7455L41.3814 13.6691C41.8999 13.1506 41.8999 12.3097 41.3814 11.7911L39.5966 10.0063C39.078 9.48774 38.2372 9.48774 37.7185 10.0063L37.7018 10.0231C37.2771 10.4477 36.6243 10.5274 36.1 10.2347C35.2956 9.78564 34.4367 9.4227 33.5357 9.15833C32.9733 8.99333 32.59 8.47337 32.59 7.8872V7.88192C32.59 7.14856 31.9955 6.55396 31.262 6.55396H28.7379C28.0045 6.55396 27.4099 7.14845 27.4099 7.88192V7.8872C27.4099 8.47325 27.0266 8.99321 26.4642 9.15833C25.5632 9.42282 24.7042 9.78575 23.8999 10.2347C23.3755 10.5274 22.7227 10.4477 22.2981 10.0231L22.2813 10.0063C21.7628 9.48774 20.9219 9.48774 20.4033 10.0063L18.6185 11.7911C18.1 12.3096 18.1 13.1504 18.6185 13.6691L18.6949 13.7455C19.1119 14.1625 19.1972 14.8007 18.921 15.3216C18.5055 16.1052 18.1709 16.9382 17.9278 17.8095C17.766 18.3899 17.2467 18.7977 16.6441 18.7977H16.4941C15.7608 18.7977 15.1662 19.3922 15.1662 20.1257V22.6498C15.1662 23.3831 15.7607 23.9777 16.4941 23.9777H16.7631C17.3501 23.9777 17.8603 24.3653 18.0354 24.9257C18.2966 25.7619 18.6431 26.5606 19.0646 27.3114C19.3532 27.8252 19.255 28.4699 18.8382 28.8866L18.6185 29.1065C18.1 29.625 18.1 30.4658 18.6185 30.9845L20.4033 32.7693C20.9218 33.2878 21.7627 33.2878 22.2813 32.7693L22.5607 32.4899C22.9698 32.0808 23.5999 31.9775 24.1104 32.2499C24.8541 32.6465 25.6424 32.9704 26.466 33.2119C27.0293 33.3771 27.41 33.9027 27.41 34.4897V34.8936C27.41 35.627 28.0045 36.2216 28.738 36.2216H31.2621C31.9955 36.2216 32.5901 35.6271 32.5901 34.8936V34.4897C32.5901 33.9027 32.9708 33.377 33.5341 33.2119C34.3577 32.9704 35.1461 32.6466 35.8897 32.2499C36.4002 31.9777 37.0303 32.0808 37.4394 32.4899L37.7188 32.7693C38.2373 33.2878 39.0782 33.2878 39.5968 32.7693L41.3816 30.9845C41.9002 30.4659 41.9002 29.6251 41.3816 29.1065L41.1618 28.8866C40.745 28.4699 40.6468 27.8251 40.9353 27.3114C41.3569 26.5606 41.7034 25.7619 41.9646 24.9257C42.1396 24.3654 42.6499 23.9777 43.2369 23.9777H43.5059C44.2391 23.9777 44.8337 23.3833 44.8337 22.6498V22.6498Z" fill="#F4FBFF"/>
<path d="M30 29.7487C34.7297 29.7487 38.564 25.9145 38.564 21.1848C38.564 16.4551 34.7297 12.6208 30 12.6208C25.2703 12.6208 21.4361 16.4551 21.4361 21.1848C21.4361 25.9145 25.2703 29.7487 30 29.7487Z" fill="#CBE2FF"/>
<path d="M30 29.7487C32.6488 29.7487 35.0162 28.5457 36.5871 26.6567C35.3536 24.2744 32.8678 22.6454 30 22.6454C27.1322 22.6454 24.6463 24.2744 23.4129 26.6567C24.9838 28.5457 27.3512 29.7487 30 29.7487V29.7487Z" fill="#407093"/>
<path d="M30 23.3908C31.7478 23.3908 33.1647 21.974 33.1647 20.2262C33.1647 18.4784 31.7478 17.0615 30 17.0615C28.2522 17.0615 26.8354 18.4784 26.8354 20.2262C26.8354 21.974 28.2522 23.3908 30 23.3908Z" fill="#365E7D"/>
<path d="M30.0251 1.63269e-05C19.608 -0.0135774 11.1199 8.46318 11.12 18.8802C11.1201 25.8052 14.849 31.8584 20.4081 35.1437C21.3951 35.7271 21.9927 36.7963 21.9927 37.943V42.5417C22.1754 42.4653 22.3759 42.4228 22.5862 42.4228H37.4137C37.6242 42.4228 37.8246 42.4653 38.0073 42.5417V37.9429C38.0073 36.7827 38.6271 35.7167 39.6247 35.1244C45.1656 31.8345 48.8798 25.7916 48.8798 18.8801C48.88 8.46119 40.4407 0.0136101 30.0251 1.63269e-05V1.63269e-05Z" fill="#FFE181"/>
<path d="M26.9825 37.943C26.9825 36.7964 26.3851 35.7271 25.3979 35.1437C19.8389 31.8583 16.11 25.8052 16.1099 18.8802C16.1098 9.31584 23.2656 1.38822 32.4997 0.164782C31.6898 0.0576726 30.864 0.0011882 30.0252 1.63271e-05C19.6082 -0.0135774 11.1199 8.46306 11.12 18.8802C11.1201 25.8052 14.8491 31.8584 20.4081 35.1437C21.3953 35.7271 21.9927 36.7964 21.9927 37.943V42.5417C22.1754 42.4653 22.3759 42.4228 22.5862 42.4228H26.9825V37.943Z" fill="#FEC458"/>
<path d="M32.3647 43.3282C31.8647 43.3282 31.4593 42.9228 31.4593 42.4228V34.3198C31.4593 33.5054 31.7335 32.7021 32.2312 32.0576L33.5269 30.3802C33.781 30.051 33.9211 29.6408 33.9211 29.2249V20.7687C33.9211 20.2686 34.3264 19.8633 34.8265 19.8633C35.3265 19.8633 35.7319 20.2686 35.7319 20.7687V29.2249C35.7319 30.0393 35.4576 30.8426 34.9599 31.4871L33.6643 33.1645C33.41 33.4937 33.2701 33.9039 33.2701 34.3198V42.4228C33.2701 42.9228 32.8647 43.3282 32.3647 43.3282Z" fill="#FFB640"/>
<path d="M27.6353 43.3282C27.1352 43.3282 26.7299 42.9228 26.7299 42.4228V34.3198C26.7299 33.904 26.5898 33.4937 26.3357 33.1645L25.0399 31.4871C24.5422 30.8427 24.268 30.0393 24.268 29.2249V20.7687C24.268 20.2686 24.6734 19.8633 25.1734 19.8633C25.6734 19.8633 26.0788 20.2686 26.0788 20.7687V29.2249C26.0788 29.6408 26.2188 30.051 26.473 30.38L27.7687 32.0575C28.2666 32.702 28.5407 33.5054 28.5407 34.3196V42.4227C28.5407 42.9228 28.1353 43.3282 27.6353 43.3282V43.3282Z" fill="#FFB640"/>
<path d="M43.1706 15.1833C42.1908 11.5321 39.6736 8.4791 36.2644 6.80742C35.8154 6.58723 35.6299 6.04477 35.85 5.59594C36.0701 5.14699 36.6128 4.9616 37.0615 5.18156C40.94 7.0834 43.8042 10.5579 44.9195 14.7139C45.0491 15.1969 44.7626 15.6935 44.2796 15.8231C43.7971 15.9527 43.3002 15.6666 43.1706 15.1833V15.1833Z" fill="#FFEAC8"/>
<path d="M26.3436 55.6804V56.3437C26.3436 58.3546 27.9889 60.0001 29.9999 60.0001C32.0108 60.0001 33.6561 58.3548 33.6561 56.3437V55.6804H26.3436Z" fill="#8479C2"/>
<path d="M29.6167 56.3437V55.6804H26.3436V56.3437C26.3436 58.3546 27.9889 60.0001 29.9999 60.0001C30.5873 60.0001 31.1432 59.8589 31.6364 59.6098C30.4416 59.0067 29.6167 57.7672 29.6167 56.3437V56.3437Z" fill="#6E60B8"/>
<path d="M35.7315 22.6782H24.2683C23.7683 22.6782 23.3629 22.2729 23.3629 21.7728C23.3629 21.2728 23.7683 20.8674 24.2683 20.8674H35.7315C36.2315 20.8674 36.6369 21.2728 36.6369 21.7728C36.6369 22.2729 36.2315 22.6782 35.7315 22.6782Z" fill="#FEC458"/>
<path d="M6.72831 19.3021H3.61358C3.11354 19.3021 2.70819 18.8968 2.70819 18.3967C2.70819 17.8967 3.11354 17.4913 3.61358 17.4913H6.72831C7.22835 17.4913 7.6337 17.8967 7.6337 18.3967C7.6337 18.8966 7.22835 19.3021 6.72831 19.3021V19.3021Z" fill="#FEC458"/>
<path d="M7.61716 13.5564L4.70505 12.4512C4.23759 12.2737 4.00239 11.7508 4.17982 11.2834C4.35735 10.8159 4.88001 10.581 5.34759 10.7582L8.2597 11.8633C8.72716 12.0408 8.96235 12.5637 8.78493 13.0311C8.60762 13.4982 8.0852 13.7337 7.61716 13.5564Z" fill="#FEC458"/>
<path d="M4.17982 25.5099C4.00239 25.0424 4.23759 24.5195 4.70505 24.3421L7.61716 23.2369C8.08438 23.0595 8.60751 23.2946 8.78493 23.7621C8.96235 24.2296 8.72716 24.7525 8.2597 24.9299L5.34759 26.0351C4.88001 26.2125 4.35735 25.9774 4.17982 25.5099V25.5099Z" fill="#FEC458"/>
<path d="M56.3864 19.3021H53.2717C52.7717 19.3021 52.3663 18.8968 52.3663 18.3967C52.3663 17.8967 52.7717 17.4913 53.2717 17.4913H56.3864C56.8865 17.4913 57.2918 17.8967 57.2918 18.3967C57.2918 18.8966 56.8865 19.3021 56.3864 19.3021Z" fill="#FEC458"/>
<path d="M51.2149 13.0311C51.0375 12.5636 51.2727 12.0407 51.7401 11.8633L54.6522 10.7581C55.1195 10.5808 55.6426 10.8157 55.82 11.2833C55.9974 11.7508 55.7622 12.2737 55.2948 12.4511L52.3828 13.5564C51.9151 13.7337 51.3924 13.4986 51.2149 13.0311Z" fill="#FEC458"/>
<path d="M54.6524 26.0352L51.7403 24.93C51.2728 24.7526 51.0376 24.2297 51.215 23.7622C51.3926 23.2948 51.9152 23.0596 52.3828 23.237L55.2949 24.3422C55.7624 24.5196 55.9976 25.0425 55.8201 25.51C55.6427 25.9771 55.1203 26.2125 54.6524 26.0352Z" fill="#FEC458"/>
<path d="M36.2072 51.231H23.7928C22.9264 51.231 22.2217 51.9357 22.2217 52.802V54.1393C22.2217 55.0056 22.9264 55.7103 23.7928 55.7103H36.2073C37.0736 55.7103 37.7783 55.0056 37.7783 54.1393V52.802C37.7783 51.9357 37.0736 51.231 36.2072 51.231Z" fill="#EFECEF"/>
<path d="M36.2072 53.4708H23.7928C23.0834 53.4708 22.4829 52.9978 22.2885 52.351C22.2455 52.494 22.2217 52.6453 22.2217 52.8021V54.1395C22.2217 55.0057 22.9264 55.7105 23.7928 55.7105H36.2073C37.0736 55.7105 37.7783 55.0057 37.7783 54.1395V52.8021C37.7783 52.6452 37.7545 52.4939 37.7115 52.351C37.5171 52.9978 36.9166 53.4708 36.2072 53.4708V53.4708Z" fill="#E2DFE2"/>
<path d="M37.4137 46.8119H22.5861C21.7199 46.8119 21.0151 47.5167 21.0151 48.3829V49.7202C21.0151 50.5866 21.7199 51.2914 22.5861 51.2914H37.4137C38.2801 51.2914 38.9849 50.5866 38.9849 49.7202V48.3829C38.9849 47.5167 38.2801 46.8119 37.4137 46.8119Z" fill="#EFECEF"/>
<path d="M37.4137 49.0517H22.5861C21.8767 49.0517 21.2762 48.5788 21.0818 47.9318C21.0388 48.0748 21.015 48.2261 21.015 48.3829V49.7203C21.015 50.5866 21.7197 51.2914 22.586 51.2914H37.4136C38.28 51.2914 38.9848 50.5866 38.9848 49.7203V48.3829C38.9848 48.226 38.961 48.0748 38.918 47.9318C38.7237 48.5788 38.1232 49.0517 37.4137 49.0517Z" fill="#E2DFE2"/>
<path d="M37.4137 42.3926H22.5861C21.7199 42.3926 21.0151 43.0973 21.0151 43.9637V45.3011C21.0151 46.1673 21.7199 46.8721 22.5861 46.8721H37.4137C38.2801 46.8721 38.9849 46.1673 38.9849 45.3011V43.9637C38.9849 43.0973 38.2801 42.3926 37.4137 42.3926Z" fill="#EFECEF"/>
<path d="M37.4137 44.6324H22.5861C21.8767 44.6324 21.2762 44.1594 21.0818 43.5126C21.0388 43.6557 21.015 43.8069 21.015 43.9637V45.3011C21.015 46.1673 21.7197 46.8721 22.586 46.8721H37.4136C38.28 46.8721 38.9848 46.1673 38.9848 45.3011V43.9637C38.9848 43.8068 38.961 43.6555 38.918 43.5126C38.7237 44.1594 38.1232 44.6324 37.4137 44.6324Z" fill="#E2DFE2"/>
</svg>
