<svg width="40" height="32" viewBox="0 0 40 32" fill="none" xmlns="http://www.w3.org/2000/svg">
<path d="M40 11.1161L21.5863 0.826134C18.4231 -0.941523 14.3141 0.226758 12.55 3.38356C10.7823 6.54676 11.9506 10.6557 15.1074 12.4199L18.7467 14.4536L16.7221 18.2498C14.4042 17.3826 11.7624 18.7279 11.0878 21.1036H7.01781V10.9474H0V31.6114H7.01781V23.4474H11.0878C11.5993 25.2487 13.2579 26.5724 15.2209 26.5724C17.5902 26.5724 19.5178 24.6448 19.5178 22.2755C19.5178 21.2918 19.1847 20.3848 18.6265 19.6597L20.7931 15.5972L25.3083 18.1204C26.9866 19.0583 29.1292 18.8689 30.614 17.6454C31.4755 16.9355 31.9449 15.9217 32.4781 14.9675L36.57 17.2541L40 11.1161ZM4.67406 29.2677H2.34375V13.2911H4.67406V29.2677ZM15.2209 24.2286C14.144 24.2286 13.2678 23.3525 13.2678 22.2755C13.2678 21.1986 14.144 20.3224 15.2209 20.3224C16.2979 20.3224 17.1741 21.1986 17.1741 22.2755C17.1741 23.3525 16.2979 24.2286 15.2209 24.2286ZM14.2124 7.79324C14.0084 7.07231 13.9969 6.32793 14.1683 5.61902L24.6197 11.4595L23.0772 14.1888L16.2508 10.374C15.2489 9.8141 14.5249 8.89754 14.2124 7.79324ZM29.6861 15.1589C29.0551 16.2882 27.5823 16.7063 26.4516 16.0744L25.1232 15.3321L27.8189 10.5623L15.3165 3.57566C16.6584 2.23715 18.7894 1.94793 20.443 2.87207L32.7188 9.73207L29.6861 15.1589ZM33.6214 12.9214L34.7648 10.8754L36.8107 12.0188L35.6673 14.0647L33.6214 12.9214Z" fill="#150822"/>
</svg>
