<svg id="Capa_1" enable-background="new 0 0 512 512" height="512" viewBox="0 0 512 512" width="512" xmlns="http://www.w3.org/2000/svg"><g><path d="m512 195.973-235.695-131.712c-40.489-22.626-93.084-7.672-115.665 32.735-22.626 40.489-7.672 93.084 32.735 115.665l46.583 26.032-25.915 48.591c-29.669-11.1-63.484 6.12-72.119 36.529h-52.096v-130h-89.828v264.5h89.828v-104.5h52.096c6.547 23.057 27.777 40 52.904 40 30.327 0 55-24.673 55-55 0-12.592-4.264-24.201-11.409-33.482l27.733-52 57.794 32.297c21.483 12.005 48.908 9.58 67.913-6.08 11.027-9.087 17.036-22.064 23.861-34.278l52.376 29.269zm-452.172 232.34h-29.828v-204.5h29.828zm135-64.5c-13.785 0-25-11.215-25-25s11.215-25 25-25 25 11.215 25 25-11.215 25-25 25zm-12.909-210.373c-2.612-9.228-2.759-18.756-.565-27.83l133.778 74.758-19.744 34.935-87.378-48.829c-12.824-7.167-22.091-18.899-26.091-33.034zm198.063 94.281c-8.077 14.455-26.929 19.806-41.402 11.718l-17.003-9.502 34.505-61.053-160.031-89.429c17.177-17.133 44.453-20.835 65.62-9.006l157.13 87.808zm50.372-28.641 14.635-26.188 26.188 14.635-14.635 26.188z"/></g></svg>