<svg width="38" height="40" viewBox="0 0 38 40" fill="none" xmlns="http://www.w3.org/2000/svg">
<path d="M14.1176 4.93787L4.86063 18.8235H23.3747L14.1176 4.93787ZM14.1176 9.17975L18.9783 16.4706H9.25702L14.1176 9.17975Z" fill="#202020"/>
<path d="M4.70587 21.1765H23.5294V23.5294H4.70587V21.1765Z" fill="#202020"/>
<path d="M9.41177 25.8823H18.8235V28.2353H9.41177V25.8823Z" fill="#202020"/>
<path d="M35.2941 6.85647C36.6635 6.37082 37.6471 5.06314 37.6471 3.52941C37.6471 1.58329 36.0638 0 34.1177 0C32.1715 0 30.5882 1.58329 30.5882 3.52941C30.5882 5.06314 31.5718 6.37082 32.9412 6.85647V12.9412H30.5882V15.2941H28.2353V0H0V32.9412H2.35294V37.647H5.88235V40H8.2353V37.647H10.5882V40H12.9412V37.647H15.2941V40H17.6471V37.647H20V40H22.3529V37.647H25.8824V32.9412H28.2353V17.6471H30.5882V20H37.6471V12.9412H35.2941V6.85647ZM34.1177 2.35294C34.7664 2.35294 35.2941 2.8807 35.2941 3.52941C35.2941 4.17812 34.7664 4.70588 34.1177 4.70588C33.4689 4.70588 32.9412 4.17812 32.9412 3.52941C32.9412 2.8807 33.4689 2.35294 34.1177 2.35294ZM23.5294 35.2941H4.70588V32.9412H23.5294V35.2941ZM25.8824 30.5882H2.35294V2.35294H25.8824V30.5882ZM35.2941 17.6471H32.9412V15.2941H35.2941V17.6471Z" fill="#202020"/>
</svg>
