<svg width="40" height="40" viewBox="0 0 40 40" fill="none" xmlns="http://www.w3.org/2000/svg">
<path d="M39.5294 36.9412L36.2353 32.549V24.7059H38.5882V9.41176C38.5882 4.22212 34.3661 0 29.1765 0C23.9868 0 19.7647 4.22212 19.7647 9.41176V10.5882H10.3529V28.2353H12.7059V30.5882C12.7059 31.8856 11.6504 32.9412 10.3529 32.9412C9.05553 32.9412 8 31.8856 8 30.5882V11.7647H5.64706V6.27451L8.94118 1.88235L7.05882 0.470588L4.47059 3.92157L1.88235 0.470588L0 1.88235L3.29412 6.27451V11.7647H0.941177V30.5882C0.941177 35.7779 5.16329 40 10.3529 40C15.5426 40 19.7647 35.7779 19.7647 30.5882V28.2353H29.1765V10.5882H26.8235V9.41176C26.8235 8.11435 27.8791 7.05882 29.1765 7.05882C30.4739 7.05882 31.5294 8.11435 31.5294 9.41176V24.7059H33.8824V32.549L30.5882 36.9412L32.4706 38.3529L35.0588 34.9019L37.6471 38.3529L39.5294 36.9412ZM17.4118 30.5882C17.4118 34.4805 14.2452 37.647 10.3529 37.647C6.46071 37.647 3.29412 34.4805 3.29412 30.5882V14.1176H5.64706V30.5882C5.64706 33.183 7.75812 35.2941 10.3529 35.2941C12.9478 35.2941 15.0588 33.183 15.0588 30.5882V28.2353H17.4118V30.5882ZM26.8235 25.8823H12.7059V12.9412H26.8235V25.8823ZM29.1765 4.70588C26.5816 4.70588 24.4706 6.81694 24.4706 9.41176V10.5882H22.1176V9.41176C22.1176 5.51953 25.2842 2.35294 29.1765 2.35294C33.0687 2.35294 36.2353 5.51953 36.2353 9.41176V22.3529H33.8824V9.41176C33.8824 6.81694 31.7713 4.70588 29.1765 4.70588Z" fill="#202020"/>
<path d="M24.4706 15.2941H15.0588V23.5294H24.4706V15.2941ZM22.1177 21.1765H17.4118V17.6471H22.1177V21.1765Z" fill="#202020"/>
</svg>
