<svg width="20" height="33" viewBox="0 0 20 33" fill="none" xmlns="http://www.w3.org/2000/svg">
<path d="M9.942 14.0357C9.78689 14.0357 9.63814 13.9741 9.52847 13.8644C9.41879 13.7547 9.35718 13.606 9.35718 13.4509V0.584821C9.35718 0.429717 9.41879 0.280966 9.52847 0.17129C9.63814 0.061615 9.78689 0 9.942 0C10.0971 0 10.2459 0.061615 10.3555 0.17129C10.4652 0.280966 10.5268 0.429717 10.5268 0.584821V13.4509C10.5268 13.606 10.4652 13.7547 10.3555 13.8644C10.2459 13.9741 10.0971 14.0357 9.942 14.0357Z" fill="#202020"/>
<path d="M9.942 32.7501C9.78689 32.7501 9.63814 32.6885 9.52847 32.5788C9.41879 32.4691 9.35718 32.3204 9.35718 32.1653V28.6564C9.35718 28.5013 9.41879 28.3525 9.52847 28.2428C9.63814 28.1331 9.78689 28.0715 9.942 28.0715C10.0971 28.0715 10.2459 28.1331 10.3555 28.2428C10.4652 28.3525 10.5268 28.5013 10.5268 28.6564V32.1653C10.5268 32.3204 10.4652 32.4691 10.3555 32.5788C10.2459 32.6885 10.0971 32.7501 9.942 32.7501Z" fill="#202020"/>
<path d="M1.83894 28.0714C1.71013 28.0716 1.58486 28.0292 1.4826 27.9509C1.38034 27.8725 1.3068 27.7626 1.27341 27.6382C1.24002 27.5138 1.24864 27.3818 1.29793 27.2628C1.34722 27.1438 1.43443 27.0444 1.54601 26.98L4.58485 25.2256C4.65138 25.1872 4.72481 25.1622 4.80097 25.1522C4.87712 25.1422 4.9545 25.1473 5.0287 25.1672C5.10289 25.187 5.17244 25.2214 5.23337 25.2681C5.29431 25.3149 5.34543 25.3732 5.38383 25.4397C5.42223 25.5062 5.44715 25.5797 5.45717 25.6558C5.46719 25.732 5.46211 25.8094 5.44223 25.8836C5.42234 25.9578 5.38804 26.0273 5.34127 26.0882C5.29451 26.1492 5.2362 26.2003 5.16967 26.2387L2.13083 27.9932C2.04212 28.0445 1.94143 28.0715 1.83894 28.0714V28.0714Z" fill="#202020"/>
<path d="M18.0449 28.0714C17.9424 28.0715 17.8417 28.0445 17.753 27.9932L14.7142 26.2387C14.6477 26.2003 14.5894 26.1492 14.5426 26.0882C14.4958 26.0273 14.4615 25.9578 14.4416 25.8836C14.4217 25.8094 14.4167 25.732 14.4267 25.6558C14.4367 25.5797 14.4616 25.5062 14.5 25.4397C14.5384 25.3732 14.5896 25.3149 14.6505 25.2681C14.7114 25.2214 14.781 25.187 14.8552 25.1672C14.9294 25.1473 15.0067 25.1422 15.0829 25.1522C15.1591 25.1622 15.2325 25.1872 15.299 25.2256L18.3378 26.98C18.4494 27.0444 18.5366 27.1438 18.5859 27.2628C18.6352 27.3818 18.6438 27.5138 18.6104 27.6382C18.5771 27.7626 18.5035 27.8725 18.4013 27.9509C18.299 28.0292 18.1737 28.0716 18.0449 28.0714V28.0714Z" fill="#202020"/>
<path d="M5.84765 30.4833C5.74503 30.4832 5.64424 30.4561 5.5554 30.4047C5.46657 30.3534 5.39281 30.2795 5.34154 30.1907C5.29026 30.1018 5.26328 30.001 5.26331 29.8983C5.26333 29.7957 5.29035 29.6949 5.34166 29.606L6.5113 27.5803C6.5497 27.5138 6.60083 27.4555 6.66177 27.4087C6.7227 27.362 6.79225 27.3277 6.86644 27.3078C6.94063 27.2879 7.01802 27.2828 7.09417 27.2928C7.17033 27.3029 7.24376 27.3278 7.31029 27.3662C7.37681 27.4046 7.43512 27.4557 7.48189 27.5166C7.52865 27.5776 7.56296 27.6471 7.58284 27.7213C7.60273 27.7955 7.60781 27.8729 7.59779 27.949C7.58777 28.0252 7.56285 28.0986 7.52445 28.1652L6.3548 30.1909C6.30346 30.2799 6.22954 30.3538 6.14049 30.4052C6.05145 30.4565 5.95043 30.4835 5.84765 30.4833V30.4833Z" fill="#202020"/>
<path d="M14.0363 30.4833C13.9335 30.4835 13.8325 30.4565 13.7434 30.4052C13.6544 30.3538 13.5805 30.2799 13.5291 30.1909L12.3595 28.1652C12.3211 28.0986 12.2961 28.0252 12.2861 27.949C12.2761 27.8729 12.2812 27.7955 12.3011 27.7213C12.321 27.6471 12.3553 27.5776 12.402 27.5166C12.4488 27.4557 12.5071 27.4046 12.5736 27.3662C12.6402 27.3278 12.7136 27.3029 12.7897 27.2928C12.8659 27.2828 12.9433 27.2879 13.0175 27.3078C13.0917 27.3277 13.1612 27.362 13.2221 27.4087C13.2831 27.4555 13.3342 27.5138 13.3726 27.5803L14.5423 29.606C14.5936 29.6949 14.6206 29.7957 14.6206 29.8983C14.6206 30.001 14.5936 30.1018 14.5424 30.1907C14.4911 30.2795 14.4173 30.3534 14.3285 30.4047C14.2397 30.4561 14.1389 30.4832 14.0363 30.4833Z" fill="#202020"/>
<path d="M9.94196 12.866C7.30609 12.8689 4.77902 13.9173 2.91518 15.7811C1.05134 17.645 0.00294104 20.1721 0 22.8079C0 22.963 0.061615 23.1118 0.17129 23.2215C0.280966 23.3311 0.429717 23.3928 0.584821 23.3928H19.2991C19.4542 23.3928 19.603 23.3311 19.7126 23.2215C19.8223 23.1118 19.8839 22.963 19.8839 22.8079C19.881 20.1721 18.8326 17.645 16.9687 15.7811C15.1049 13.9173 12.5778 12.8689 9.94196 12.866V12.866Z" fill="#202020"/>
<path d="M6.2489 24.5625C6.57959 25.2623 7.1023 25.8537 7.75614 26.2679C8.40999 26.6821 9.16805 26.902 9.94205 26.902C10.716 26.902 11.4741 26.6821 12.128 26.2679C12.7818 25.8537 13.3045 25.2623 13.6352 24.5625H6.2489Z" fill="#202020"/>
</svg>
