<svg width="30" height="30" viewBox="0 0 30 30" fill="none" xmlns="http://www.w3.org/2000/svg">
<path d="M15 13.125C14.8757 13.125 14.7565 13.0756 14.6685 12.9877C14.5806 12.8998 14.5312 12.7806 14.5312 12.6562V2.34375C14.5312 2.21943 14.5806 2.1002 14.6685 2.01229C14.7565 1.92439 14.8757 1.875 15 1.875C15.1243 1.875 15.2435 1.92439 15.3315 2.01229C15.4194 2.1002 15.4688 2.21943 15.4688 2.34375V12.6562C15.4688 12.7806 15.4194 12.8998 15.3315 12.9877C15.2435 13.0756 15.1243 13.125 15 13.125Z" fill="#FFEE32"/>
<path d="M15 28.125C14.8757 28.125 14.7565 28.0756 14.6685 27.9877C14.5806 27.8998 14.5312 27.7806 14.5312 27.6562V24.8438C14.5312 24.7194 14.5806 24.6002 14.6685 24.5123C14.7565 24.4244 14.8757 24.375 15 24.375C15.1243 24.375 15.2435 24.4244 15.3315 24.5123C15.4194 24.6002 15.4688 24.7194 15.4688 24.8438V27.6562C15.4688 27.7806 15.4194 27.8998 15.3315 27.9877C15.2435 28.0756 15.1243 28.125 15 28.125Z" fill="#FFEE32"/>
<path d="M8.5052 24.3749C8.40195 24.3751 8.30155 24.3411 8.21958 24.2783C8.13762 24.2155 8.07868 24.1274 8.05191 24.0277C8.02515 23.928 8.03206 23.8222 8.07156 23.7268C8.11107 23.6314 8.18097 23.5518 8.27041 23.5002L10.7061 22.0939C10.7594 22.0631 10.8183 22.0432 10.8793 22.0351C10.9404 22.0271 11.0024 22.0312 11.0619 22.0471C11.1213 22.0631 11.1771 22.0906 11.2259 22.128C11.2748 22.1655 11.3157 22.2123 11.3465 22.2656C11.3773 22.3189 11.3973 22.3778 11.4053 22.4388C11.4133 22.4998 11.4093 22.5619 11.3933 22.6213C11.3774 22.6808 11.3499 22.7365 11.3124 22.7854C11.2749 22.8342 11.2282 22.8752 11.1749 22.906L8.73915 24.3122C8.66806 24.3534 8.58735 24.375 8.5052 24.3749V24.3749Z" fill="#FFEE32"/>
<path d="M21.4947 24.3749C21.4126 24.375 21.3319 24.3534 21.2608 24.3122L18.8251 22.906C18.7718 22.8752 18.725 22.8342 18.6875 22.7854C18.6501 22.7365 18.6226 22.6808 18.6066 22.6213C18.5907 22.5619 18.5866 22.4998 18.5946 22.4388C18.6027 22.3778 18.6226 22.3189 18.6534 22.2656C18.6842 22.2123 18.7252 22.1655 18.774 22.128C18.8229 22.0906 18.8786 22.0631 18.9381 22.0471C18.9975 22.0312 19.0596 22.0271 19.1206 22.0351C19.1816 22.0432 19.2405 22.0631 19.2938 22.0939L21.7295 23.5002C21.819 23.5518 21.8889 23.6314 21.9284 23.7268C21.9679 23.8222 21.9748 23.928 21.948 24.0277C21.9213 24.1274 21.8623 24.2155 21.7804 24.2783C21.6984 24.3411 21.598 24.3751 21.4947 24.3749V24.3749Z" fill="#FFEE32"/>
<path d="M11.7183 26.3082C11.6361 26.3081 11.5553 26.2864 11.4841 26.2452C11.4129 26.2041 11.3537 26.1449 11.3126 26.0736C11.2715 26.0024 11.2499 25.9216 11.2499 25.8393C11.25 25.7571 11.2716 25.6763 11.3127 25.6051L12.2502 23.9814C12.281 23.9281 12.322 23.8813 12.3708 23.8439C12.4197 23.8064 12.4754 23.7789 12.5349 23.7629C12.5944 23.747 12.6564 23.7429 12.7174 23.751C12.7785 23.759 12.8373 23.779 12.8907 23.8097C12.944 23.8405 12.9907 23.8815 13.0282 23.9303C13.0657 23.9792 13.0932 24.0349 13.1091 24.0944C13.1251 24.1539 13.1291 24.2159 13.1211 24.2769C13.1131 24.338 13.0931 24.3968 13.0623 24.4501L12.1248 26.0738C12.0837 26.1452 12.0244 26.2044 11.953 26.2456C11.8817 26.2867 11.8007 26.3083 11.7183 26.3082V26.3082Z" fill="#FFEE32"/>
<path d="M18.2817 26.3082C18.1993 26.3083 18.1184 26.2867 18.047 26.2456C17.9756 26.2044 17.9164 26.1452 17.8752 26.0738L16.9377 24.4501C16.907 24.3968 16.887 24.338 16.8789 24.2769C16.8709 24.2159 16.875 24.1539 16.8909 24.0944C16.9069 24.0349 16.9344 23.9792 16.9718 23.9303C17.0093 23.8815 17.0561 23.8405 17.1094 23.8097C17.1627 23.779 17.2216 23.759 17.2826 23.751C17.3436 23.7429 17.4057 23.747 17.4651 23.7629C17.5246 23.7789 17.5804 23.8064 17.6292 23.8439C17.678 23.8813 17.719 23.9281 17.7498 23.9814L18.6873 25.6051C18.7284 25.6763 18.7501 25.7571 18.7501 25.8393C18.7501 25.9216 18.7285 26.0024 18.6874 26.0736C18.6463 26.1449 18.5872 26.2041 18.516 26.2452C18.4448 26.2864 18.364 26.3081 18.2817 26.3082Z" fill="#FFEE32"/>
<path d="M15 12.1875C12.8873 12.1899 10.8618 13.0302 9.36785 14.5241C7.87393 16.018 7.03361 18.0435 7.03125 20.1562C7.03125 20.2806 7.08064 20.3998 7.16854 20.4877C7.25645 20.5756 7.37568 20.625 7.5 20.625H22.5C22.6243 20.625 22.7435 20.5756 22.8315 20.4877C22.9194 20.3998 22.9688 20.2806 22.9688 20.1562C22.9664 18.0435 22.1261 16.018 20.6322 14.5241C19.1382 13.0302 17.1127 12.1899 15 12.1875V12.1875Z" fill="#FFEE32"/>
<path d="M12.0399 21.5625C12.305 22.1234 12.7239 22.5975 13.248 22.9294C13.7721 23.2614 14.3797 23.4377 15.0001 23.4377C15.6205 23.4377 16.2281 23.2614 16.7521 22.9294C17.2762 22.5975 17.6952 22.1234 17.9602 21.5625H12.0399Z" fill="#FFEE32"/>
</svg>
