<svg width="66" height="62" viewBox="0 0 66 62" fill="none" xmlns="http://www.w3.org/2000/svg">
<path d="M63.7174 48.7187C66.7609 45.6753 66.7609 40.733 63.7174 37.703C60.6739 34.6596 55.7317 34.6596 52.7017 37.703L48.5674 41.8373C47.4228 42.982 45.5509 42.982 44.4062 41.8373L37.0265 34.4441C36.5687 33.9862 35.9492 33.7304 35.3163 33.7304C34.6699 33.7304 34.0504 33.9862 33.606 34.4441C31.586 36.4641 28.9061 37.5818 26.0377 37.5818C23.1694 37.5818 20.4895 36.4641 18.4695 34.4441L11.79 27.7646L26.9131 12.6416L33.5925 19.3211C35.4509 21.1795 36.5552 23.6439 36.7033 26.2564C36.7841 27.5492 37.848 28.5457 39.1273 28.5457C39.1677 28.5457 39.2216 28.5457 39.2755 28.5457C40.6087 28.4649 41.6321 27.3202 41.5513 25.987C41.3358 22.176 39.7199 18.5939 37.0265 15.9005L30.3471 9.22108L31.0877 8.48041C32.0304 7.53775 32.0304 6.00255 31.0877 5.04642C30.1451 4.10376 28.6099 4.10376 27.6537 5.04642L22.9 9.80015L14.6584 1.55856C13.7158 0.615896 12.1806 0.615896 11.2244 1.55856C10.2818 2.50123 10.2818 4.03642 11.2244 4.99255L19.466 13.2341L12.3826 20.3176L4.14099 12.076C3.19833 11.1333 1.66313 11.1333 0.706999 12.076C-0.235666 13.0187 -0.235666 14.5539 0.706999 15.51L8.96205 23.7516L4.20832 28.5053C3.26566 29.448 3.26566 30.9832 4.20832 31.9393C4.67966 32.4106 5.29912 32.653 5.91859 32.653C6.53805 32.653 7.15752 32.4106 7.62885 31.9393L8.36952 31.1986L15.049 37.8781C17.9847 40.8138 21.89 42.4298 26.0377 42.4298C29.364 42.4298 32.5421 41.3929 35.1816 39.4537L40.9857 45.2578C42.5074 46.7795 44.5005 47.5337 46.4936 47.5337C48.4866 47.5337 50.4797 46.7795 52.0014 45.2578L56.1357 41.1236C57.2804 39.9789 59.1522 39.9789 60.2969 41.1236C61.4415 42.2682 61.4415 44.1401 60.2969 45.2847L56.1626 49.419C54.6948 50.8869 53.8868 52.8395 53.8868 54.9269C53.8868 57.0142 54.6948 58.9669 56.1626 60.4347C56.634 60.9061 57.2534 61.1484 57.8729 61.1484C58.4924 61.1484 59.1118 60.9061 59.5831 60.4347C60.5258 59.4921 60.5258 57.9569 59.5831 57.0007C59.031 56.4486 58.7213 55.7079 58.7213 54.9269C58.7213 54.1458 59.031 53.4051 59.5831 52.853L63.7174 48.7187Z" fill="#E3E3E3"/>
</svg>
