<svg width="89" height="89" viewBox="0 0 89 89" fill="none" xmlns="http://www.w3.org/2000/svg">
<path d="M85.922 68.3934C90.026 64.2893 90.026 57.6248 85.922 53.5389C81.8179 49.4348 75.1533 49.4348 71.0674 53.5389L65.4924 59.1138C63.9489 60.6574 61.4247 60.6574 59.8811 59.1138L49.9297 49.1442C49.3123 48.5268 48.4769 48.1818 47.6234 48.1818C46.7518 48.1818 45.9164 48.5268 45.3172 49.1442C42.5932 51.8682 38.9795 53.3754 35.1115 53.3754C31.2435 53.3754 27.6298 51.8682 24.9058 49.1442L15.8987 40.1371L36.2919 19.7439L45.299 28.7511C47.805 31.2571 49.2941 34.5803 49.4939 38.1032C49.6028 39.8465 51.0374 41.1904 52.7626 41.1904C52.8171 41.1904 52.8897 41.1904 52.9624 41.1904C54.7602 41.0814 56.1403 39.5378 56.0313 37.74C55.7408 32.6009 53.5616 27.7704 49.9297 24.1385L40.9226 15.1314L41.9213 14.1326C43.1925 12.8614 43.1925 10.7912 41.9213 9.50192C40.6502 8.23075 38.58 8.23075 37.2907 9.50192L30.8803 15.9122L19.7667 4.79859C18.4955 3.52742 16.4253 3.52742 15.136 4.79859C13.8648 6.06976 13.8648 8.13995 15.136 9.42928L26.2496 20.5429L16.6977 30.0949L5.58406 18.9812C4.3129 17.71 2.24271 17.71 0.953377 18.9812C-0.317792 20.2524 -0.317792 22.3226 0.953377 23.6119L12.0852 34.7256L5.67486 41.1359C4.40369 42.407 4.40369 44.4772 5.67486 45.7666C6.31045 46.4021 7.14579 46.729 7.98113 46.729C8.81647 46.729 9.65181 46.4021 10.2874 45.7666L11.2862 44.7678L20.2933 53.7749C24.2521 57.7337 29.5184 59.9129 35.1115 59.9129C39.5969 59.9129 43.8826 58.5146 47.4418 55.8996L55.2686 63.7264C57.3207 65.7784 60.0083 66.7953 62.6959 66.7953C65.3835 66.7953 68.0711 65.7784 70.1231 63.7264L75.6981 58.1514C77.2417 56.6078 79.7659 56.6078 81.3094 58.1514C82.853 59.695 82.853 62.2191 81.3094 63.7627L75.7344 69.3377C73.755 71.3171 72.6655 73.9502 72.6655 76.7649C72.6655 79.5797 73.755 82.2128 75.7344 84.1922C76.37 84.8278 77.2054 85.1547 78.0407 85.1547C78.876 85.1547 79.7114 84.8278 80.347 84.1922C81.6181 82.921 81.6181 80.8508 80.347 79.5615C79.6024 78.817 79.1848 77.8182 79.1848 76.7649C79.1848 75.7117 79.6024 74.7129 80.347 73.9684L85.922 68.3934Z" fill="#D9D9D9"/>
</svg>
