<svg width="30" height="30" viewBox="0 0 30 30" fill="none" xmlns="http://www.w3.org/2000/svg">
<path d="M19.9266 21.4032C19.9263 21.5147 19.9592 21.6237 20.0209 21.7166C20.0827 21.8094 20.1706 21.8818 20.2735 21.9247C20.3764 21.9676 20.4897 21.979 20.5991 21.9574C20.7085 21.9359 20.809 21.8824 20.888 21.8038C20.967 21.7251 21.0209 21.6248 21.0429 21.5155C21.0648 21.4062 21.0539 21.2928 21.0115 21.1897C20.969 21.0867 20.897 20.9985 20.8044 20.9363C20.7118 20.8742 20.6029 20.8409 20.4914 20.8407C20.342 20.8408 20.1988 20.9 20.0929 21.0054C19.9871 21.1108 19.9273 21.2538 19.9266 21.4032V21.4032Z" fill="#FFEE32"/>
<path d="M15.9375 20.3087V16.4907H14.0625V20.3087C14.6829 20.201 15.3171 20.201 15.9375 20.3087V20.3087Z" fill="#FFEE32"/>
<path d="M14.9977 20.6884C14.5365 20.6878 14.0777 20.7549 13.636 20.8876H13.6313C12.9812 21.084 12.3809 21.4179 11.8712 21.8666C11.3614 22.3153 10.954 22.8684 10.6766 23.4882C10.3992 24.1081 10.2583 24.7804 10.2634 25.4595C10.2686 26.1386 10.4196 26.8087 10.7063 27.4243C10.7638 27.5469 10.8549 27.6506 10.969 27.7236C11.083 27.7966 11.2154 27.8358 11.3508 27.8368H18.6492C18.783 27.8367 18.9141 27.7988 19.0273 27.7275C19.1405 27.6561 19.2312 27.5543 19.2891 27.4337C19.5857 26.8081 19.7394 26.1244 19.7391 25.4321C19.7391 25.3384 19.7344 25.2446 19.7297 25.1485C19.6625 24.1561 19.2881 23.2091 18.6586 22.439C18.0291 21.6688 17.1756 21.1135 16.2164 20.8501C15.8175 20.7508 15.4087 20.6966 14.9977 20.6884V20.6884Z" fill="#FFEE32"/>
<path d="M20.0696 2.75162C20.0428 2.58704 19.9583 2.4374 19.8311 2.32957C19.704 2.22174 19.5425 2.1628 19.3758 2.16333H10.6242C10.4575 2.1628 10.2961 2.22174 10.1689 2.32957C10.0417 2.4374 9.9572 2.58704 9.93048 2.75162L7.89376 15.2063C7.87747 15.3068 7.8832 15.4097 7.91057 15.5077C7.93793 15.6058 7.98627 15.6968 8.05224 15.7744C8.11822 15.8519 8.20025 15.9142 8.29267 15.957C8.38509 15.9997 8.48569 16.0219 8.58751 16.0219H21.4125C21.5144 16.0219 21.615 15.9997 21.7074 15.957C21.7998 15.9142 21.8818 15.8519 21.9478 15.7744C22.0138 15.6968 22.0621 15.6058 22.0895 15.5077C22.1168 15.4097 22.1226 15.3068 22.1063 15.2063L20.0696 2.75162Z" fill="#FFEE32"/>
<path d="M20.2568 16.4907V20.4003C20.4106 20.3613 20.5718 20.3613 20.7256 20.4003V16.4907H20.2568Z" fill="#FFEE32"/>
</svg>
