<svg width="17" height="31" viewBox="0 0 17 31" fill="none" xmlns="http://www.w3.org/2000/svg">
<path d="M14.2562 22.7778C14.256 22.9097 14.2948 23.0388 14.3679 23.1487C14.441 23.2586 14.5451 23.3444 14.6669 23.3951C14.7887 23.4459 14.9229 23.4594 15.0524 23.4339C15.1819 23.4084 15.3009 23.3451 15.3944 23.252C15.488 23.1589 15.5518 23.0401 15.5778 22.9107C15.6038 22.7813 15.5909 22.6471 15.5406 22.525C15.4904 22.403 15.405 22.2986 15.2955 22.2251C15.1859 22.1515 15.0569 22.1121 14.9249 22.1118C14.7481 22.1119 14.5785 22.182 14.4531 22.3068C14.3278 22.4316 14.257 22.6009 14.2562 22.7778V22.7778Z" fill="#202020"/>
<path d="M9.53364 21.482V16.9619H7.31384V21.482C8.04829 21.3545 8.79919 21.3545 9.53364 21.482V21.482Z" fill="#202020"/>
<path d="M8.42096 21.9316C7.87494 21.931 7.33178 22.0105 6.80883 22.1675H6.80328C6.03365 22.4001 5.32301 22.7954 4.71949 23.3266C4.11597 23.8578 3.63368 24.5125 3.30529 25.2464C2.9769 25.9803 2.81008 26.7762 2.81614 27.5801C2.8222 28.3841 3.00099 29.1774 3.3404 29.9063C3.40856 30.0514 3.51638 30.1742 3.6514 30.2606C3.78643 30.347 3.94315 30.3935 4.10345 30.3946H12.744C12.9024 30.3945 13.0575 30.3496 13.1915 30.2652C13.3256 30.1807 13.433 30.0602 13.5015 29.9174C13.8526 29.1768 14.0346 28.3673 14.0343 27.5477C14.0343 27.4367 14.0287 27.3257 14.0232 27.212C13.9435 26.037 13.5004 24.916 12.7551 24.0042C12.0099 23.0923 10.9994 22.435 9.86383 22.1231C9.39153 22.0056 8.90755 21.9414 8.42096 21.9316V21.9316Z" fill="#202020"/>
<path d="M14.4255 0.696465C14.3939 0.501632 14.2938 0.324467 14.1433 0.196808C13.9927 0.0691501 13.8016 -0.000631497 13.6042 4.30669e-06H3.2433C3.04592 -0.000631497 2.85478 0.0691501 2.70423 0.196808C2.55369 0.324467 2.45361 0.501632 2.42198 0.696465L0.010724 15.4414C-0.00856404 15.5604 -0.00177558 15.6822 0.0306192 15.7983C0.0630141 15.9144 0.120242 16.0221 0.198347 16.114C0.276452 16.2058 0.373569 16.2796 0.482983 16.3302C0.592398 16.3808 0.711498 16.407 0.832048 16.4071H16.0155C16.136 16.407 16.2551 16.3808 16.3645 16.3302C16.4739 16.2796 16.571 16.2058 16.6492 16.114C16.7273 16.0221 16.7845 15.9144 16.8169 15.7983C16.8493 15.6822 16.8561 15.5604 16.8368 15.4414L14.4255 0.696465Z" fill="#202020"/>
<path d="M14.6472 16.9619V21.5905C14.8293 21.5442 15.0201 21.5442 15.2022 21.5905V16.9619H14.6472Z" fill="#202020"/>
</svg>
