<svg width="30" height="30" viewBox="0 0 30 30" fill="none" xmlns="http://www.w3.org/2000/svg">
<path d="M0 15.0001C0 23.2844 6.71583 29.9999 15.0001 29.9999C23.2844 29.9999 29.9999 23.2844 29.9999 15.0001C29.9999 6.71583 23.2844 0 15.0001 0C6.71583 0 0 6.71583 0 15.0001H0ZM13.2553 8.76304L19.571 14.2895C19.7765 14.4684 19.8948 14.7275 19.8948 15.0001C19.8948 15.2724 19.7765 15.5318 19.571 15.7104L13.2553 21.2369C12.863 21.5812 12.2654 21.5425 11.921 21.1501C11.5767 20.7575 11.6154 20.1602 12.0078 19.8159L17.5105 15.0001L12.0078 10.1843C11.6154 9.8397 11.5767 9.24239 11.921 8.85007C12.2654 8.45745 12.863 8.41871 13.2553 8.76304V8.76304Z" fill="#FFEE32" fill-opacity="0.7"/>
</svg>
