<svg width="30" height="30" viewBox="0 0 30 30" fill="none" xmlns="http://www.w3.org/2000/svg">
<path d="M30 14.9999C30 6.71563 23.2842 9.60534e-05 14.9999 9.60534e-05C6.71563 9.60534e-05 9.60534e-05 6.71563 9.60534e-05 14.9999C9.60534e-05 23.2842 6.71563 30 14.9999 30C23.2842 30 30 23.2842 30 14.9999H30ZM16.7447 21.237L10.429 15.7105C10.2235 15.5316 10.1052 15.2725 10.1052 14.9999C10.1052 14.7276 10.2235 14.4682 10.429 14.2896L16.7447 8.76314C17.137 8.4188 17.7346 8.45755 18.079 8.84987C18.4233 9.24249 18.3846 9.8398 17.9922 10.1841L12.4895 14.9999L17.9922 19.8157C18.3846 20.1603 18.4233 20.7576 18.079 21.1499C17.7346 21.5426 17.137 21.5813 16.7447 21.237V21.237Z" fill="#FFEE32" fill-opacity="0.7"/>
</svg>
