<svg width="40" height="40" viewBox="0 0 40 40" fill="none" xmlns="http://www.w3.org/2000/svg">
<path d="M40 35V5C40 2.23876 37.7612 0 35 0L5 0C2.23875 0 -3.8147e-06 2.23876 -3.8147e-06 5V35C-3.8147e-06 37.7612 2.23875 40 5 40H35C37.7612 40 40 37.7612 40 35ZM17.6512 28.17L10.58 21.0988C10.28 20.7988 10.1875 20.3888 10.255 20C10.1862 19.6125 10.28 19.2012 10.58 18.9012L17.6512 11.83C18.14 11.3412 18.9312 11.3412 19.4187 11.83C19.9075 12.3188 19.9075 13.11 19.4187 13.5975L14.2675 18.75L27.5 18.75C28.19 18.75 28.75 19.31 28.75 20C28.75 20.69 28.19 21.25 27.5 21.25L14.2675 21.25L19.4187 26.4012C19.9075 26.89 19.9075 27.6812 19.4187 28.1687C18.93 28.6562 18.14 28.6575 17.6512 28.17Z" fill="#FFEE32"/>
</svg>
