<svg width="40" height="40" viewBox="0 0 40 40" fill="none" xmlns="http://www.w3.org/2000/svg">
<path d="M0 5L0 35C0 37.7612 2.23876 40 5 40H35C37.7612 40 40 37.7612 40 35V5C40 2.23875 37.7612 -3.8147e-06 35 -3.8147e-06H5C2.23876 -3.8147e-06 0 2.23875 0 5ZM22.3488 11.83L29.42 18.9012C29.72 19.2012 29.8125 19.6112 29.745 20C29.8138 20.3875 29.72 20.7988 29.42 21.0988L22.3488 28.17C21.86 28.6588 21.0688 28.6588 20.5813 28.17C20.0925 27.6812 20.0925 26.89 20.5813 26.4025L25.7325 21.25L12.5 21.25C11.81 21.25 11.25 20.69 11.25 20C11.25 19.31 11.81 18.75 12.5 18.75L25.7325 18.75L20.5813 13.5988C20.0925 13.11 20.0925 12.3188 20.5813 11.8313C21.07 11.3438 21.86 11.3425 22.3488 11.83Z" fill="#FFEE32"/>
</svg>
