<svg width="19" height="35" viewBox="0 0 19 35" fill="none" xmlns="http://www.w3.org/2000/svg">
<path d="M2.06323 7.98078H15.9487C17.0883 7.98078 18.0128 8.9048 18.0128 10.0449C18.0128 11.1846 17.0883 12.1088 15.9487 12.1088H15.3395C15.3673 12.2925 15.386 12.4796 15.386 12.6713L15.386 19.0898C15.386 21.1622 13.7062 22.8424 11.6334 22.8424H10.7701V24.4528C10.7701 25.1826 10.3781 25.4762 9.79487 25.5927V35H7.55525L7.55525 25.5462C7.07677 25.405 6.76713 25.1012 6.76713 24.4528V22.8424H6.37925C4.30711 22.8424 2.62661 21.1623 2.62661 19.0898L2.62661 12.6713C2.62661 12.4796 2.64597 12.2925 2.67344 12.1088H2.06403C0.924425 12.1088 0 11.1846 0 10.0449C8.0322e-05 8.9048 0.923542 7.98078 2.06323 7.98078ZM5.15282 1.27648e-06C4.34454 1.27648e-06 3.68919 0.655831 3.68919 1.46371L3.68919 7.3427H6.61637V1.46371C6.61645 0.655831 5.96158 1.27648e-06 5.15282 1.27648e-06ZM11.2954 1.46371V7.3427H14.2226V1.46371C14.2226 0.655831 13.5672 1.27648e-06 12.7589 1.27648e-06C11.9506 1.27648e-06 11.2954 0.655831 11.2954 1.46371Z" fill="#202020"/>
</svg>
