<svg width="123" height="107" viewBox="0 0 123 107" fill="none" xmlns="http://www.w3.org/2000/svg">
<path d="M73.3349 85.7538C70.284 87.0264 69.0046 90.6483 70.3824 93.5851L75.2049 103.668C76.5828 106.506 79.929 107.779 82.8815 106.506C91.2471 102.982 98.4316 98.3808 104.14 92.801C111.128 86.2432 115.852 78.7056 118.41 70.3848C120.969 61.9651 122.347 50.5128 122.347 35.9269V5.87415C122.347 2.64373 119.69 0.000656128 116.442 0.000656128H77.7638C74.516 0.000656128 71.8587 2.64373 71.8587 5.87415L71.8587 44.3456C71.8587 47.577 74.516 50.2191 77.7638 50.2191L96.2664 50.2191C96.0696 60.1071 93.7075 68.0354 89.3771 74.0077C85.8341 78.8025 80.5195 82.7181 73.3349 85.7538Z" fill="#F5F5F5"/>
<path d="M3.85175 85.754C0.800785 87.0265 -0.477669 90.6485 0.899204 93.5853L5.7217 103.569C7.09956 106.408 10.4458 107.681 13.3983 106.408C21.6655 102.884 28.7526 98.2831 34.5582 92.8012C41.5469 86.1445 46.3684 78.6069 48.9283 70.2861C51.4872 62.0642 52.7656 50.6099 52.7656 35.9261L52.7656 5.87336C52.7656 2.64294 50.1083 -0.000137329 46.8605 -0.000137329H8.18216C4.93435 -0.000137329 2.27706 2.64294 2.27706 5.87336L2.27706 44.3448C2.27706 47.5762 4.93435 50.2183 8.18216 50.2183L26.7832 50.2183C26.5864 60.1063 24.2233 68.0346 19.8939 74.007C16.3509 78.8027 11.0363 82.7183 3.85175 85.754Z" fill="#F5F5F5"/>
</svg>
