<svg width="38" height="40" viewBox="0 0 38 40" fill="none" xmlns="http://www.w3.org/2000/svg">
<path d="M21.8771 27.2207L20.2199 25.5634C19.5473 26.236 18.4528 26.236 17.7802 25.5634L16.1229 27.2207C16.9161 28.0139 17.9581 28.4104 19 28.4104C20.042 28.4104 21.0839 28.0139 21.8771 27.2207Z" fill="#202020"/>
<path d="M12.026 31.3176C13.9487 33.2403 16.4743 34.2017 19 34.2017C21.5257 34.2017 24.0512 33.2403 25.974 31.3176L24.3167 29.6603C21.3851 32.5918 16.615 32.5918 13.6833 29.6603L12.026 31.3176Z" fill="#202020"/>
<path d="M19 37.6563C15.4439 37.6563 12.1008 36.2715 9.5864 33.7572L7.92914 35.4145C10.8862 38.3715 14.8179 40 19 40C23.1821 40 27.1137 38.3715 30.0709 35.4145L28.4136 33.7572C25.8992 36.2715 22.5561 37.6563 19 37.6563V37.6563Z" fill="#202020"/>
<path d="M0.0605469 0V10.9324H3.59094L7.24203 22.5366H30.7579L34.409 10.9324H37.9394V0L0.0605469 0ZM8.96164 20.1928L6.04797 10.9324H9.35383L12.2675 20.1928H8.96164ZM17.8281 20.1928H14.7245L11.8109 10.9324H14.3185C14.7495 12.6536 16.1069 14.011 17.8281 14.442V20.1928ZM16.5177 9.76055C16.5177 8.39172 17.6312 7.2782 19 7.2782C20.3687 7.2782 21.4823 8.3918 21.4823 9.76055C21.4823 11.1293 20.3687 12.2429 19 12.2429C17.6312 12.2429 16.5177 11.1293 16.5177 9.76055ZM20.1719 20.1928V14.442C21.893 14.011 23.2505 12.6536 23.6815 10.9324H26.1891L23.2755 20.1928H20.1719ZM29.0383 20.1928H25.7325L28.6462 10.9324H31.952L29.0383 20.1928ZM35.5957 8.58867H23.6815C23.1565 6.49203 21.257 4.93437 19 4.93437C16.743 4.93437 14.8435 6.49203 14.3185 8.58859H2.4043V2.38367H35.5957V8.58867Z" fill="#202020"/>
</svg>
