<svg width="40" height="40" viewBox="0 0 40 40" fill="none" xmlns="http://www.w3.org/2000/svg">
<g clip-path="url(#clip0_39_982)">
<path d="M30.0377 4.19089C24.6715 -1.23521 15.7879 -1.50862 10.1208 4.05183C4.56823 9.49981 4.59247 18.0753 9.48029 23.5325C10.9531 25.1768 11.7643 27.2648 11.7643 29.4118V31.9608C11.7643 33.4577 12.7562 34.7272 14.1172 35.1468V36.5098C14.1172 38.4343 15.4752 40 17.1446 40H22.8545C24.5238 40 25.8819 38.4343 25.8819 36.5098V35.1468C27.2429 34.7271 28.2349 33.4577 28.2349 31.9608V29.4118C28.2349 27.2648 29.0461 25.1768 30.519 23.5323C35.4297 18.0493 35.3587 9.57126 30.0377 4.19089V4.19089ZM22.8544 37.6471H17.1446C16.8326 37.6471 16.4701 37.1503 16.4701 36.5098V35.2941H23.5289V36.5098C23.5289 37.1503 23.1663 37.6471 22.8544 37.6471ZM25.8819 31.9608C25.8819 32.5014 25.4421 32.9412 24.9015 32.9412H15.0976C14.557 32.9412 14.1172 32.5014 14.1172 31.9608V30.5883H25.8819V31.9608ZM28.7662 21.9624C27.1752 23.7387 26.1962 25.9314 25.9463 28.2353H14.0528C13.8028 25.9315 12.824 23.7388 11.233 21.9625C9.27864 19.7806 8.21402 16.9636 8.2352 14.0304C8.28194 7.58154 13.5961 2.27952 20.1413 2.3538C26.5503 2.42925 31.7642 7.70648 31.7642 14.1176C31.7642 17.018 30.6995 19.804 28.7662 21.9624V21.9624Z" fill="#202020"/>
<path d="M22.1848 11.1937L20.1672 9.98302L15.5687 17.6471H20.2746L17.8143 21.7477L19.8318 22.9583L24.4303 15.2942H19.7245L22.1848 11.1937Z" fill="#202020"/>
</g>
<defs>
<clipPath id="clip0_39_982">
<rect width="40" height="40" fill="white"/>
</clipPath>
</defs>
</svg>
