<svg width="31" height="31" viewBox="0 0 31 31" fill="none" xmlns="http://www.w3.org/2000/svg">
<path d="M19.375 15.5C19.375 17.6402 17.6402 19.375 15.5 19.375C13.3598 19.375 11.625 17.6402 11.625 15.5C11.625 13.3598 13.3598 11.625 15.5 11.625C17.6402 11.625 19.375 13.3598 19.375 15.5Z" fill="#150822"/>
<path d="M7.75 15.5C7.75 17.6402 6.01519 19.375 3.875 19.375C1.73481 19.375 0 17.6402 0 15.5C0 13.3598 1.73481 11.625 3.875 11.625C6.01519 11.625 7.75 13.3598 7.75 15.5Z" fill="#150822"/>
<path d="M31 15.5C31 17.6402 29.2652 19.375 27.125 19.375C24.9848 19.375 23.25 17.6402 23.25 15.5C23.25 13.3598 24.9848 11.625 27.125 11.625C29.2652 11.625 31 13.3598 31 15.5Z" fill="#150822"/>
</svg>
