<svg width="40" height="40" viewBox="0 0 40 40" fill="none" xmlns="http://www.w3.org/2000/svg">
<path d="M27.0588 8.23529H29.4118V10.5882H27.0588V8.23529Z" fill="#202020"/>
<path d="M22.3529 8.23529H24.7059V10.5882H22.3529V8.23529Z" fill="#202020"/>
<path d="M29.4117 21.1765H27.0588V24.7059H24.7058V21.1765H22.3529V24.7059H20V29.4117C20 32.2525 22.0241 34.6292 24.7058 35.1757V36.4706C24.7058 37.1194 24.1781 37.647 23.5294 37.647H16.4705C15.8218 37.647 15.2941 37.1194 15.2941 36.4706V24.7059C15.2941 22.7597 13.7108 21.1765 11.7647 21.1765H5.88232C3.9362 21.1765 2.35291 22.7597 2.35291 24.7059V40H4.70585V24.7059C4.70585 24.0571 5.23361 23.5294 5.88232 23.5294H11.7647C12.4134 23.5294 12.9411 24.0571 12.9411 24.7059V36.4706C12.9411 38.4168 14.5244 40 16.4705 40H23.5294C25.4755 40 27.0588 38.4168 27.0588 36.4706V35.1757C29.7405 34.6292 31.7647 32.2525 31.7647 29.4117V24.7059H29.4117V21.1765ZM29.4117 29.4117C29.4117 31.3579 27.8284 32.9412 25.8823 32.9412C23.9361 32.9412 22.3529 31.3579 22.3529 29.4117V27.0588H29.4117V29.4117Z" fill="#202020"/>
<path d="M38.3089 0.665569L37.9882 0H2.01184L1.69098 0.665569C0.580863 2.96847 0 6.80863 0 9.41177C0 12.0149 0.580863 15.8551 1.69098 18.158L2.01184 18.8235H37.9881L38.3089 18.158C39.4191 15.8551 40 12.0149 40 9.41177C40 6.80863 39.4191 2.96847 38.3089 0.665569V0.665569ZM32.9412 9.41177C32.9412 13.304 29.7746 16.4706 25.8824 16.4706C21.9901 16.4706 18.8235 13.304 18.8235 9.41177C18.8235 5.51953 21.9901 2.35294 25.8824 2.35294C29.7746 2.35294 32.9412 5.51953 32.9412 9.41177ZM3.52682 16.4706C2.76212 14.4545 2.35294 11.4514 2.35294 9.41177C2.35294 7.37216 2.76212 4.36902 3.52682 2.35294H19.6644C15.4027 6.11137 15.4092 12.7178 19.6644 16.4706H3.52682ZM36.4732 16.4706H32.1002C36.362 12.7121 36.3555 6.10573 32.1002 2.35294H36.4732C37.2378 4.36902 37.6471 7.37216 37.6471 9.41177C37.6471 11.4514 37.2378 14.4545 36.4732 16.4706Z" fill="#202020"/>
<path d="M5.88232 14.1176H12.9411V4.70587H5.88232V14.1176ZM8.23527 7.05881H10.5882V11.7647H8.23527V7.05881Z" fill="#202020"/>
</svg>
