<svg width="38" height="40" viewBox="0 0 38 40" fill="none" xmlns="http://www.w3.org/2000/svg">
<path d="M21.8773 27.2207L20.22 25.5634C19.5474 26.236 18.453 26.236 17.7803 25.5634L16.123 27.2207C16.9163 28.0139 17.9582 28.4104 19.0002 28.4104C20.0421 28.4104 21.0841 28.0139 21.8773 27.2207Z" fill="#150822"/>
<path d="M12.0259 31.3176C13.9486 33.2403 16.4742 34.2017 18.9999 34.2017C21.5256 34.2017 24.0511 33.2403 25.9738 31.3176L24.3166 29.6603C21.3849 32.5918 16.6149 32.5918 13.6832 29.6603L12.0259 31.3176Z" fill="#150822"/>
<path d="M19.0001 37.6563C15.444 37.6563 12.1008 36.2715 9.58646 33.7572L7.9292 35.4145C10.8863 38.3715 14.8179 40 19.0001 40C23.1822 40 27.1138 38.3715 30.0709 35.4145L28.4137 33.7572C25.8993 36.2715 22.5562 37.6563 19.0001 37.6563Z" fill="#150822"/>
<path d="M0.0605469 0V10.9324H3.59094L7.24203 22.5366H30.7579L34.409 10.9324H37.9394V0L0.0605469 0ZM8.96164 20.1928L6.04797 10.9324H9.35383L12.2675 20.1928H8.96164ZM17.8281 20.1928H14.7245L11.8109 10.9324H14.3185C14.7495 12.6536 16.1069 14.011 17.8281 14.442V20.1928ZM16.5177 9.76055C16.5177 8.39172 17.6312 7.2782 19 7.2782C20.3687 7.2782 21.4823 8.3918 21.4823 9.76055C21.4823 11.1293 20.3687 12.2429 19 12.2429C17.6312 12.2429 16.5177 11.1293 16.5177 9.76055ZM20.1719 20.1928V14.442C21.893 14.011 23.2505 12.6536 23.6815 10.9324H26.1891L23.2755 20.1928H20.1719ZM29.0383 20.1928H25.7325L28.6462 10.9324H31.952L29.0383 20.1928ZM35.5957 8.58867H23.6815C23.1565 6.49203 21.257 4.93437 19 4.93437C16.743 4.93437 14.8435 6.49203 14.3185 8.58859H2.4043V2.38367H35.5957V8.58867Z" fill="#150822"/>
</svg>
